G04 #@! TF.GenerationSoftware,KiCad,Pcbnew,(5.0.0-rc2-dev-222-g3b0a758)*
G04 #@! TF.CreationDate,2018-07-05T12:59:24+02:00*
G04 #@! TF.ProjectId,bornhack_scale_it,626F726E6861636B5F7363616C655F69,rev?*
G04 #@! TF.SameCoordinates,PX2faf080PY1c9c380*
G04 #@! TF.FileFunction,Soldermask,Bot*
G04 #@! TF.FilePolarity,Negative*
%FSLAX46Y46*%
G04 Gerber Fmt 4.6, Leading zero omitted, Abs format (unit mm)*
G04 Created by KiCad (PCBNEW (5.0.0-rc2-dev-222-g3b0a758)) date Thursday, 05 July 2018 at 12:59:24*
%MOMM*%
%LPD*%
G01*
G04 APERTURE LIST*
%ADD10C,0.010000*%
%ADD11C,1.600000*%
%ADD12O,2.100000X2.100000*%
%ADD13R,2.100000X2.100000*%
%ADD14C,2.100000*%
%ADD15O,1.416000X2.432000*%
%ADD16C,1.705560*%
%ADD17C,1.802000*%
%ADD18C,1.750000*%
%ADD19C,1.750000*%
%ADD20O,3.750000X1.750000*%
%ADD21O,1.750000X1.750000*%
G04 APERTURE END LIST*
D10*
G36*
X7560821Y-26516993D02*
X8172487Y-26634888D01*
X8761026Y-26825721D01*
X9319468Y-27084864D01*
X9840840Y-27407686D01*
X10318171Y-27789560D01*
X10744492Y-28225854D01*
X11112829Y-28711941D01*
X11416212Y-29243191D01*
X11548272Y-29541446D01*
X11576207Y-29620516D01*
X11627376Y-29775480D01*
X11700196Y-30001282D01*
X11793085Y-30292868D01*
X11904462Y-30645183D01*
X12032744Y-31053172D01*
X12176351Y-31511780D01*
X12333699Y-32015952D01*
X12503208Y-32560634D01*
X12683295Y-33140770D01*
X12872379Y-33751305D01*
X13068877Y-34387185D01*
X13271208Y-35043355D01*
X13345873Y-35285851D01*
X13586419Y-36066618D01*
X13803565Y-36770468D01*
X13998278Y-37401573D01*
X14171522Y-37964100D01*
X14324265Y-38462219D01*
X14457473Y-38900099D01*
X14572112Y-39281910D01*
X14669148Y-39611820D01*
X14749547Y-39894000D01*
X14814276Y-40132616D01*
X14864301Y-40331841D01*
X14900588Y-40495841D01*
X14924103Y-40628787D01*
X14935813Y-40734847D01*
X14936683Y-40818191D01*
X14927680Y-40882988D01*
X14909771Y-40933408D01*
X14883920Y-40973618D01*
X14851096Y-41007789D01*
X14812262Y-41040090D01*
X14768387Y-41074690D01*
X14720436Y-41115758D01*
X14701204Y-41134067D01*
X14420039Y-41356847D01*
X14082237Y-41535687D01*
X13706020Y-41666208D01*
X13309610Y-41744027D01*
X12911228Y-41764762D01*
X12529096Y-41724032D01*
X12387783Y-41690367D01*
X12245863Y-41645072D01*
X12163880Y-41599117D01*
X12118567Y-41536182D01*
X12101120Y-41489284D01*
X12083692Y-41433177D01*
X12042867Y-41301035D01*
X11980147Y-41097742D01*
X11897040Y-40828185D01*
X11795048Y-40497250D01*
X11675679Y-40109820D01*
X11540435Y-39670783D01*
X11390823Y-39185024D01*
X11228348Y-38657429D01*
X11054513Y-38092882D01*
X10870825Y-37496271D01*
X10678789Y-36872479D01*
X10479908Y-36226394D01*
X10423766Y-36044000D01*
X10222338Y-35390754D01*
X10026344Y-34757393D01*
X9837360Y-34148902D01*
X9656964Y-33570266D01*
X9486733Y-33026471D01*
X9328245Y-32522504D01*
X9183077Y-32063348D01*
X9052807Y-31653991D01*
X8939012Y-31299417D01*
X8843270Y-31004613D01*
X8767158Y-30774564D01*
X8712253Y-30614255D01*
X8680133Y-30528673D01*
X8675828Y-30519500D01*
X8509522Y-30272473D01*
X8286193Y-30033291D01*
X8031771Y-29826740D01*
X7816831Y-29698461D01*
X7446229Y-29559094D01*
X7072788Y-29497389D01*
X6704795Y-29507780D01*
X6350537Y-29584697D01*
X6018299Y-29722572D01*
X5716369Y-29915837D01*
X5453031Y-30158923D01*
X5236573Y-30446262D01*
X5075281Y-30772287D01*
X4977441Y-31131428D01*
X4951338Y-31518117D01*
X4957134Y-31620166D01*
X4967013Y-31685318D01*
X4989526Y-31788285D01*
X5025637Y-31932317D01*
X5076307Y-32120661D01*
X5142501Y-32356565D01*
X5225179Y-32643279D01*
X5325306Y-32984048D01*
X5443844Y-33382123D01*
X5581755Y-33840751D01*
X5740003Y-34363180D01*
X5919550Y-34952659D01*
X6121358Y-35612435D01*
X6346391Y-36345757D01*
X6595611Y-37155872D01*
X6655458Y-37350169D01*
X8329471Y-42783839D01*
X8244821Y-42902719D01*
X8012904Y-43160933D01*
X7717211Y-43384603D01*
X7373740Y-43567544D01*
X6998490Y-43703571D01*
X6607460Y-43786500D01*
X6216650Y-43810145D01*
X5953698Y-43788398D01*
X5791656Y-43757769D01*
X5641027Y-43718679D01*
X5576879Y-43696494D01*
X5438528Y-43640041D01*
X3750645Y-38159270D01*
X3545856Y-37493180D01*
X3347263Y-36845071D01*
X3156385Y-36220004D01*
X2974739Y-35623040D01*
X2803844Y-35059237D01*
X2645215Y-34533655D01*
X2500373Y-34051354D01*
X2370833Y-33617395D01*
X2258115Y-33236837D01*
X2163735Y-32914739D01*
X2089211Y-32656162D01*
X2036062Y-32466166D01*
X2005804Y-32349809D01*
X2000215Y-32323704D01*
X1973839Y-32127381D01*
X1952958Y-31883072D01*
X1940260Y-31627414D01*
X1937667Y-31471131D01*
X1978043Y-30832192D01*
X2095884Y-30217656D01*
X2286254Y-29632456D01*
X2544220Y-29081525D01*
X2864849Y-28569795D01*
X3243206Y-28102200D01*
X3674357Y-27683672D01*
X4153368Y-27319146D01*
X4675307Y-27013553D01*
X5235238Y-26771827D01*
X5828228Y-26598900D01*
X6449342Y-26499707D01*
X6933000Y-26476666D01*
X7560821Y-26516993D01*
X7560821Y-26516993D01*
G37*
X7560821Y-26516993D02*
X8172487Y-26634888D01*
X8761026Y-26825721D01*
X9319468Y-27084864D01*
X9840840Y-27407686D01*
X10318171Y-27789560D01*
X10744492Y-28225854D01*
X11112829Y-28711941D01*
X11416212Y-29243191D01*
X11548272Y-29541446D01*
X11576207Y-29620516D01*
X11627376Y-29775480D01*
X11700196Y-30001282D01*
X11793085Y-30292868D01*
X11904462Y-30645183D01*
X12032744Y-31053172D01*
X12176351Y-31511780D01*
X12333699Y-32015952D01*
X12503208Y-32560634D01*
X12683295Y-33140770D01*
X12872379Y-33751305D01*
X13068877Y-34387185D01*
X13271208Y-35043355D01*
X13345873Y-35285851D01*
X13586419Y-36066618D01*
X13803565Y-36770468D01*
X13998278Y-37401573D01*
X14171522Y-37964100D01*
X14324265Y-38462219D01*
X14457473Y-38900099D01*
X14572112Y-39281910D01*
X14669148Y-39611820D01*
X14749547Y-39894000D01*
X14814276Y-40132616D01*
X14864301Y-40331841D01*
X14900588Y-40495841D01*
X14924103Y-40628787D01*
X14935813Y-40734847D01*
X14936683Y-40818191D01*
X14927680Y-40882988D01*
X14909771Y-40933408D01*
X14883920Y-40973618D01*
X14851096Y-41007789D01*
X14812262Y-41040090D01*
X14768387Y-41074690D01*
X14720436Y-41115758D01*
X14701204Y-41134067D01*
X14420039Y-41356847D01*
X14082237Y-41535687D01*
X13706020Y-41666208D01*
X13309610Y-41744027D01*
X12911228Y-41764762D01*
X12529096Y-41724032D01*
X12387783Y-41690367D01*
X12245863Y-41645072D01*
X12163880Y-41599117D01*
X12118567Y-41536182D01*
X12101120Y-41489284D01*
X12083692Y-41433177D01*
X12042867Y-41301035D01*
X11980147Y-41097742D01*
X11897040Y-40828185D01*
X11795048Y-40497250D01*
X11675679Y-40109820D01*
X11540435Y-39670783D01*
X11390823Y-39185024D01*
X11228348Y-38657429D01*
X11054513Y-38092882D01*
X10870825Y-37496271D01*
X10678789Y-36872479D01*
X10479908Y-36226394D01*
X10423766Y-36044000D01*
X10222338Y-35390754D01*
X10026344Y-34757393D01*
X9837360Y-34148902D01*
X9656964Y-33570266D01*
X9486733Y-33026471D01*
X9328245Y-32522504D01*
X9183077Y-32063348D01*
X9052807Y-31653991D01*
X8939012Y-31299417D01*
X8843270Y-31004613D01*
X8767158Y-30774564D01*
X8712253Y-30614255D01*
X8680133Y-30528673D01*
X8675828Y-30519500D01*
X8509522Y-30272473D01*
X8286193Y-30033291D01*
X8031771Y-29826740D01*
X7816831Y-29698461D01*
X7446229Y-29559094D01*
X7072788Y-29497389D01*
X6704795Y-29507780D01*
X6350537Y-29584697D01*
X6018299Y-29722572D01*
X5716369Y-29915837D01*
X5453031Y-30158923D01*
X5236573Y-30446262D01*
X5075281Y-30772287D01*
X4977441Y-31131428D01*
X4951338Y-31518117D01*
X4957134Y-31620166D01*
X4967013Y-31685318D01*
X4989526Y-31788285D01*
X5025637Y-31932317D01*
X5076307Y-32120661D01*
X5142501Y-32356565D01*
X5225179Y-32643279D01*
X5325306Y-32984048D01*
X5443844Y-33382123D01*
X5581755Y-33840751D01*
X5740003Y-34363180D01*
X5919550Y-34952659D01*
X6121358Y-35612435D01*
X6346391Y-36345757D01*
X6595611Y-37155872D01*
X6655458Y-37350169D01*
X8329471Y-42783839D01*
X8244821Y-42902719D01*
X8012904Y-43160933D01*
X7717211Y-43384603D01*
X7373740Y-43567544D01*
X6998490Y-43703571D01*
X6607460Y-43786500D01*
X6216650Y-43810145D01*
X5953698Y-43788398D01*
X5791656Y-43757769D01*
X5641027Y-43718679D01*
X5576879Y-43696494D01*
X5438528Y-43640041D01*
X3750645Y-38159270D01*
X3545856Y-37493180D01*
X3347263Y-36845071D01*
X3156385Y-36220004D01*
X2974739Y-35623040D01*
X2803844Y-35059237D01*
X2645215Y-34533655D01*
X2500373Y-34051354D01*
X2370833Y-33617395D01*
X2258115Y-33236837D01*
X2163735Y-32914739D01*
X2089211Y-32656162D01*
X2036062Y-32466166D01*
X2005804Y-32349809D01*
X2000215Y-32323704D01*
X1973839Y-32127381D01*
X1952958Y-31883072D01*
X1940260Y-31627414D01*
X1937667Y-31471131D01*
X1978043Y-30832192D01*
X2095884Y-30217656D01*
X2286254Y-29632456D01*
X2544220Y-29081525D01*
X2864849Y-28569795D01*
X3243206Y-28102200D01*
X3674357Y-27683672D01*
X4153368Y-27319146D01*
X4675307Y-27013553D01*
X5235238Y-26771827D01*
X5828228Y-26598900D01*
X6449342Y-26499707D01*
X6933000Y-26476666D01*
X7560821Y-26516993D01*
D11*
X27500000Y-68500000D03*
X27500000Y-121500000D03*
X42500000Y-121500000D03*
X42500000Y-68500000D03*
D12*
X38870000Y-46200000D03*
X36330000Y-46200000D03*
X33790000Y-46200000D03*
D13*
X31250000Y-46200000D03*
X5880000Y-91920000D03*
D12*
X5880000Y-94460000D03*
X5880000Y-97000000D03*
X5880000Y-99540000D03*
X64300000Y-99540000D03*
X64300000Y-97000000D03*
X64300000Y-94460000D03*
D13*
X64300000Y-91920000D03*
D12*
X59220000Y-124940000D03*
X56680000Y-124940000D03*
X59220000Y-122400000D03*
X56680000Y-122400000D03*
X59220000Y-119860000D03*
X56680000Y-119860000D03*
X59220000Y-117320000D03*
X56680000Y-117320000D03*
X59220000Y-114780000D03*
X56680000Y-114780000D03*
X59220000Y-112240000D03*
D14*
X56680000Y-112240000D03*
D12*
X13500000Y-117320000D03*
X10960000Y-117320000D03*
X13500000Y-114780000D03*
X10960000Y-114780000D03*
X13500000Y-112240000D03*
D14*
X10960000Y-112240000D03*
D15*
X44624580Y-39500000D03*
X37375420Y-39500000D03*
D16*
X43423160Y-42227960D03*
X38576840Y-42227960D03*
D17*
X25144574Y-39401975D03*
D18*
X27665926Y-40041181D03*
D19*
X26700000Y-40300000D02*
X28631852Y-39782362D01*
D18*
X27008526Y-37587730D03*
D19*
X26042600Y-37846549D02*
X27974452Y-37328911D01*
D18*
X23280622Y-41216220D03*
D19*
X22314696Y-41475039D02*
X24246548Y-40957401D01*
D18*
X22623222Y-38762768D03*
D19*
X21657296Y-39021587D02*
X23589148Y-38503949D01*
D18*
X26700000Y-40300000D03*
D19*
X26700000Y-40300000D02*
X26700000Y-40300000D01*
D18*
X24246548Y-40957401D03*
D19*
X24246548Y-40957401D02*
X24246548Y-40957401D01*
D18*
X26042600Y-37846549D03*
D19*
X26042600Y-37846549D02*
X26042600Y-37846549D01*
D18*
X23589148Y-38503949D03*
D17*
X12230000Y-105890000D03*
D20*
X14500000Y-107160000D03*
X14500000Y-104620000D03*
X9960000Y-107160000D03*
X9960000Y-104620000D03*
D21*
X13500000Y-107160000D03*
X10960000Y-107160000D03*
X13500000Y-104620000D03*
D18*
X10960000Y-104620000D03*
X56680000Y-104620000D03*
D21*
X59220000Y-104620000D03*
X56680000Y-107160000D03*
X59220000Y-107160000D03*
D20*
X55680000Y-104620000D03*
X55680000Y-107160000D03*
X60220000Y-104620000D03*
X60220000Y-107160000D03*
D17*
X57950000Y-105890000D03*
D18*
X10960000Y-122400000D03*
D21*
X13500000Y-122400000D03*
X10960000Y-124940000D03*
X13500000Y-124940000D03*
D20*
X9960000Y-122400000D03*
X9960000Y-124940000D03*
X14500000Y-122400000D03*
X14500000Y-124940000D03*
D17*
X12230000Y-123670000D03*
M02*
