G04 #@! TF.GenerationSoftware,KiCad,Pcbnew,(5.0.0-rc2-dev-222-g3b0a758)*
G04 #@! TF.CreationDate,2018-07-05T12:59:24+02:00*
G04 #@! TF.ProjectId,bornhack_scale_it,626F726E6861636B5F7363616C655F69,rev?*
G04 #@! TF.SameCoordinates,PX2faf080PY1c9c380*
G04 #@! TF.FileFunction,Paste,Top*
G04 #@! TF.FilePolarity,Positive*
%FSLAX46Y46*%
G04 Gerber Fmt 4.6, Leading zero omitted, Abs format (unit mm)*
G04 Created by KiCad (PCBNEW (5.0.0-rc2-dev-222-g3b0a758)) date Thursday, 05 July 2018 at 12:59:24*
%MOMM*%
%LPD*%
G01*
G04 APERTURE LIST*
%ADD10O,0.248920X0.797560*%
%ADD11O,0.797560X0.248920*%
%ADD12O,4.599940X4.599940*%
%ADD13R,0.398780X1.348740*%
%ADD14C,1.899920*%
%ADD15O,1.016000X2.032000*%
%ADD16C,1.305560*%
%ADD17C,0.497840*%
%ADD18R,2.540000X1.270000*%
%ADD19R,0.889000X0.889000*%
%ADD20C,0.250000*%
%ADD21C,0.100000*%
%ADD22R,2.032000X1.778000*%
%ADD23R,0.762000X0.889000*%
%ADD24R,1.143000X1.016000*%
G04 APERTURE END LIST*
D10*
X58500360Y-48499740D03*
X58901680Y-48499740D03*
X59300460Y-48499740D03*
X59701780Y-48499740D03*
X60100560Y-48499740D03*
X60501880Y-48499740D03*
X60898120Y-48499740D03*
X61299440Y-48499740D03*
X61698220Y-48499740D03*
X62099540Y-48499740D03*
X62498320Y-48499740D03*
X62899640Y-48499740D03*
D11*
X63699740Y-47699640D03*
X63699740Y-47298320D03*
X63699740Y-46899540D03*
X63699740Y-46498220D03*
X63699740Y-46099440D03*
X63699740Y-45698120D03*
X63699740Y-45301880D03*
X63699740Y-44900560D03*
X63699740Y-44501780D03*
X63699740Y-44100460D03*
X63699740Y-43701680D03*
X63699740Y-43300360D03*
D10*
X62899640Y-42500260D03*
X62498320Y-42500260D03*
X62099540Y-42500260D03*
X61698220Y-42500260D03*
X61299440Y-42500260D03*
X60898120Y-42500260D03*
X60501880Y-42500260D03*
X60100560Y-42500260D03*
X59701780Y-42500260D03*
X59300460Y-42500260D03*
X58901680Y-42500260D03*
X58500360Y-42500260D03*
D11*
X57700260Y-43300360D03*
X57700260Y-43701680D03*
X57700260Y-44100460D03*
X57700260Y-44501780D03*
X57700260Y-44900560D03*
X57700260Y-45301880D03*
X57700260Y-45698120D03*
X57700260Y-46099440D03*
X57700260Y-46498220D03*
X57700260Y-46899540D03*
X57700260Y-47298320D03*
X57700260Y-47699640D03*
D12*
X60700000Y-45500000D03*
D13*
X42297940Y-42372740D03*
X41647700Y-42372740D03*
X41000000Y-42372740D03*
X40352300Y-42372740D03*
X39702060Y-42372740D03*
D14*
X42198880Y-39500000D03*
X39801120Y-39500000D03*
D15*
X44624580Y-39500000D03*
X37375420Y-39500000D03*
D16*
X43423160Y-42227960D03*
X38576840Y-42227960D03*
D17*
X39448119Y-53776881D03*
X40101881Y-53123119D03*
X40223119Y-54526881D03*
X40876881Y-53873119D03*
X41048119Y-55301881D03*
X41701881Y-54648119D03*
X57537720Y-51400000D03*
X58462280Y-51400000D03*
X58462280Y-50000000D03*
X57537720Y-50000000D03*
X62253119Y-50576881D03*
X62906881Y-49923119D03*
X57062280Y-42200000D03*
X56137720Y-42200000D03*
X59062280Y-41000000D03*
X58137720Y-41000000D03*
X54137720Y-41000000D03*
X55062280Y-41000000D03*
X57137720Y-39800000D03*
X58062280Y-39800000D03*
X64262280Y-39400000D03*
X63337720Y-39400000D03*
X52062280Y-39600000D03*
X51137720Y-39600000D03*
X51037720Y-47400000D03*
X51962280Y-47400000D03*
X55262280Y-45400000D03*
X54337720Y-45400000D03*
X64262280Y-40400000D03*
X63337720Y-40400000D03*
D18*
X36872500Y-89841000D03*
X36872500Y-94159000D03*
X45127500Y-94159000D03*
X45127500Y-89841000D03*
X12872500Y-89841000D03*
X12872500Y-94159000D03*
X21127500Y-94159000D03*
X21127500Y-89841000D03*
X33127500Y-89841000D03*
X33127500Y-94159000D03*
X24872500Y-94159000D03*
X24872500Y-89841000D03*
X57127500Y-89841000D03*
X57127500Y-94159000D03*
X48872500Y-94159000D03*
X48872500Y-89841000D03*
D17*
X60137720Y-41000000D03*
X61062280Y-41000000D03*
X62062280Y-39800000D03*
X61137720Y-39800000D03*
D19*
X17200000Y-55438000D03*
X17200000Y-56962000D03*
X18762000Y-59600000D03*
X17238000Y-59600000D03*
D17*
X27826881Y-60576881D03*
X27173119Y-59923119D03*
X39126881Y-52173119D03*
X38473119Y-52826881D03*
X37673119Y-52026881D03*
X38326881Y-51373119D03*
D20*
X29979542Y-57868629D03*
D21*
G36*
X30527550Y-58239860D02*
X30350773Y-58416637D01*
X29431534Y-57497398D01*
X29608311Y-57320621D01*
X30527550Y-58239860D01*
X30527550Y-58239860D01*
G37*
D20*
X30333095Y-57515076D03*
D21*
G36*
X30881103Y-57886307D02*
X30704326Y-58063084D01*
X29785087Y-57143845D01*
X29961864Y-56967068D01*
X30881103Y-57886307D01*
X30881103Y-57886307D01*
G37*
D20*
X30686649Y-57161522D03*
D21*
G36*
X31234657Y-57532753D02*
X31057880Y-57709530D01*
X30138641Y-56790291D01*
X30315418Y-56613514D01*
X31234657Y-57532753D01*
X31234657Y-57532753D01*
G37*
D20*
X31040202Y-56807969D03*
D21*
G36*
X31588210Y-57179200D02*
X31411433Y-57355977D01*
X30492194Y-56436738D01*
X30668971Y-56259961D01*
X31588210Y-57179200D01*
X31588210Y-57179200D01*
G37*
D20*
X31393755Y-56454416D03*
D21*
G36*
X31941763Y-56825647D02*
X31764986Y-57002424D01*
X30845747Y-56083185D01*
X31022524Y-55906408D01*
X31941763Y-56825647D01*
X31941763Y-56825647D01*
G37*
D20*
X31747309Y-56100862D03*
D21*
G36*
X32295317Y-56472093D02*
X32118540Y-56648870D01*
X31199301Y-55729631D01*
X31376078Y-55552854D01*
X32295317Y-56472093D01*
X32295317Y-56472093D01*
G37*
D20*
X32100862Y-55747309D03*
D21*
G36*
X32648870Y-56118540D02*
X32472093Y-56295317D01*
X31552854Y-55376078D01*
X31729631Y-55199301D01*
X32648870Y-56118540D01*
X32648870Y-56118540D01*
G37*
D20*
X32454416Y-55393755D03*
D21*
G36*
X33002424Y-55764986D02*
X32825647Y-55941763D01*
X31906408Y-55022524D01*
X32083185Y-54845747D01*
X33002424Y-55764986D01*
X33002424Y-55764986D01*
G37*
D20*
X32807969Y-55040202D03*
D21*
G36*
X33355977Y-55411433D02*
X33179200Y-55588210D01*
X32259961Y-54668971D01*
X32436738Y-54492194D01*
X33355977Y-55411433D01*
X33355977Y-55411433D01*
G37*
D20*
X33161522Y-54686649D03*
D21*
G36*
X33709530Y-55057880D02*
X33532753Y-55234657D01*
X32613514Y-54315418D01*
X32790291Y-54138641D01*
X33709530Y-55057880D01*
X33709530Y-55057880D01*
G37*
D20*
X33515076Y-54333095D03*
D21*
G36*
X34063084Y-54704326D02*
X33886307Y-54881103D01*
X32967068Y-53961864D01*
X33143845Y-53785087D01*
X34063084Y-54704326D01*
X34063084Y-54704326D01*
G37*
D20*
X33868629Y-53979542D03*
D21*
G36*
X34416637Y-54350773D02*
X34239860Y-54527550D01*
X33320621Y-53608311D01*
X33497398Y-53431534D01*
X34416637Y-54350773D01*
X34416637Y-54350773D01*
G37*
D20*
X36131371Y-53979542D03*
D21*
G36*
X35760140Y-54527550D02*
X35583363Y-54350773D01*
X36502602Y-53431534D01*
X36679379Y-53608311D01*
X35760140Y-54527550D01*
X35760140Y-54527550D01*
G37*
D20*
X36484924Y-54333095D03*
D21*
G36*
X36113693Y-54881103D02*
X35936916Y-54704326D01*
X36856155Y-53785087D01*
X37032932Y-53961864D01*
X36113693Y-54881103D01*
X36113693Y-54881103D01*
G37*
D20*
X36838478Y-54686649D03*
D21*
G36*
X36467247Y-55234657D02*
X36290470Y-55057880D01*
X37209709Y-54138641D01*
X37386486Y-54315418D01*
X36467247Y-55234657D01*
X36467247Y-55234657D01*
G37*
D20*
X37192031Y-55040202D03*
D21*
G36*
X36820800Y-55588210D02*
X36644023Y-55411433D01*
X37563262Y-54492194D01*
X37740039Y-54668971D01*
X36820800Y-55588210D01*
X36820800Y-55588210D01*
G37*
D20*
X37545584Y-55393755D03*
D21*
G36*
X37174353Y-55941763D02*
X36997576Y-55764986D01*
X37916815Y-54845747D01*
X38093592Y-55022524D01*
X37174353Y-55941763D01*
X37174353Y-55941763D01*
G37*
D20*
X37899138Y-55747309D03*
D21*
G36*
X37527907Y-56295317D02*
X37351130Y-56118540D01*
X38270369Y-55199301D01*
X38447146Y-55376078D01*
X37527907Y-56295317D01*
X37527907Y-56295317D01*
G37*
D20*
X38252691Y-56100862D03*
D21*
G36*
X37881460Y-56648870D02*
X37704683Y-56472093D01*
X38623922Y-55552854D01*
X38800699Y-55729631D01*
X37881460Y-56648870D01*
X37881460Y-56648870D01*
G37*
D20*
X38606245Y-56454416D03*
D21*
G36*
X38235014Y-57002424D02*
X38058237Y-56825647D01*
X38977476Y-55906408D01*
X39154253Y-56083185D01*
X38235014Y-57002424D01*
X38235014Y-57002424D01*
G37*
D20*
X38959798Y-56807969D03*
D21*
G36*
X38588567Y-57355977D02*
X38411790Y-57179200D01*
X39331029Y-56259961D01*
X39507806Y-56436738D01*
X38588567Y-57355977D01*
X38588567Y-57355977D01*
G37*
D20*
X39313351Y-57161522D03*
D21*
G36*
X38942120Y-57709530D02*
X38765343Y-57532753D01*
X39684582Y-56613514D01*
X39861359Y-56790291D01*
X38942120Y-57709530D01*
X38942120Y-57709530D01*
G37*
D20*
X39666905Y-57515076D03*
D21*
G36*
X39295674Y-58063084D02*
X39118897Y-57886307D01*
X40038136Y-56967068D01*
X40214913Y-57143845D01*
X39295674Y-58063084D01*
X39295674Y-58063084D01*
G37*
D20*
X40020458Y-57868629D03*
D21*
G36*
X39649227Y-58416637D02*
X39472450Y-58239860D01*
X40391689Y-57320621D01*
X40568466Y-57497398D01*
X39649227Y-58416637D01*
X39649227Y-58416637D01*
G37*
D20*
X40020458Y-60131371D03*
D21*
G36*
X40568466Y-60502602D02*
X40391689Y-60679379D01*
X39472450Y-59760140D01*
X39649227Y-59583363D01*
X40568466Y-60502602D01*
X40568466Y-60502602D01*
G37*
D20*
X39666905Y-60484924D03*
D21*
G36*
X40214913Y-60856155D02*
X40038136Y-61032932D01*
X39118897Y-60113693D01*
X39295674Y-59936916D01*
X40214913Y-60856155D01*
X40214913Y-60856155D01*
G37*
D20*
X39313351Y-60838478D03*
D21*
G36*
X39861359Y-61209709D02*
X39684582Y-61386486D01*
X38765343Y-60467247D01*
X38942120Y-60290470D01*
X39861359Y-61209709D01*
X39861359Y-61209709D01*
G37*
D20*
X38959798Y-61192031D03*
D21*
G36*
X39507806Y-61563262D02*
X39331029Y-61740039D01*
X38411790Y-60820800D01*
X38588567Y-60644023D01*
X39507806Y-61563262D01*
X39507806Y-61563262D01*
G37*
D20*
X38606245Y-61545584D03*
D21*
G36*
X39154253Y-61916815D02*
X38977476Y-62093592D01*
X38058237Y-61174353D01*
X38235014Y-60997576D01*
X39154253Y-61916815D01*
X39154253Y-61916815D01*
G37*
D20*
X38252691Y-61899138D03*
D21*
G36*
X38800699Y-62270369D02*
X38623922Y-62447146D01*
X37704683Y-61527907D01*
X37881460Y-61351130D01*
X38800699Y-62270369D01*
X38800699Y-62270369D01*
G37*
D20*
X37899138Y-62252691D03*
D21*
G36*
X38447146Y-62623922D02*
X38270369Y-62800699D01*
X37351130Y-61881460D01*
X37527907Y-61704683D01*
X38447146Y-62623922D01*
X38447146Y-62623922D01*
G37*
D20*
X37545584Y-62606245D03*
D21*
G36*
X38093592Y-62977476D02*
X37916815Y-63154253D01*
X36997576Y-62235014D01*
X37174353Y-62058237D01*
X38093592Y-62977476D01*
X38093592Y-62977476D01*
G37*
D20*
X37192031Y-62959798D03*
D21*
G36*
X37740039Y-63331029D02*
X37563262Y-63507806D01*
X36644023Y-62588567D01*
X36820800Y-62411790D01*
X37740039Y-63331029D01*
X37740039Y-63331029D01*
G37*
D20*
X36838478Y-63313351D03*
D21*
G36*
X37386486Y-63684582D02*
X37209709Y-63861359D01*
X36290470Y-62942120D01*
X36467247Y-62765343D01*
X37386486Y-63684582D01*
X37386486Y-63684582D01*
G37*
D20*
X36484924Y-63666905D03*
D21*
G36*
X37032932Y-64038136D02*
X36856155Y-64214913D01*
X35936916Y-63295674D01*
X36113693Y-63118897D01*
X37032932Y-64038136D01*
X37032932Y-64038136D01*
G37*
D20*
X36131371Y-64020458D03*
D21*
G36*
X36679379Y-64391689D02*
X36502602Y-64568466D01*
X35583363Y-63649227D01*
X35760140Y-63472450D01*
X36679379Y-64391689D01*
X36679379Y-64391689D01*
G37*
D20*
X33868629Y-64020458D03*
D21*
G36*
X33497398Y-64568466D02*
X33320621Y-64391689D01*
X34239860Y-63472450D01*
X34416637Y-63649227D01*
X33497398Y-64568466D01*
X33497398Y-64568466D01*
G37*
D20*
X33515076Y-63666905D03*
D21*
G36*
X33143845Y-64214913D02*
X32967068Y-64038136D01*
X33886307Y-63118897D01*
X34063084Y-63295674D01*
X33143845Y-64214913D01*
X33143845Y-64214913D01*
G37*
D20*
X33161522Y-63313351D03*
D21*
G36*
X32790291Y-63861359D02*
X32613514Y-63684582D01*
X33532753Y-62765343D01*
X33709530Y-62942120D01*
X32790291Y-63861359D01*
X32790291Y-63861359D01*
G37*
D20*
X32807969Y-62959798D03*
D21*
G36*
X32436738Y-63507806D02*
X32259961Y-63331029D01*
X33179200Y-62411790D01*
X33355977Y-62588567D01*
X32436738Y-63507806D01*
X32436738Y-63507806D01*
G37*
D20*
X32454416Y-62606245D03*
D21*
G36*
X32083185Y-63154253D02*
X31906408Y-62977476D01*
X32825647Y-62058237D01*
X33002424Y-62235014D01*
X32083185Y-63154253D01*
X32083185Y-63154253D01*
G37*
D20*
X32100862Y-62252691D03*
D21*
G36*
X31729631Y-62800699D02*
X31552854Y-62623922D01*
X32472093Y-61704683D01*
X32648870Y-61881460D01*
X31729631Y-62800699D01*
X31729631Y-62800699D01*
G37*
D20*
X31747309Y-61899138D03*
D21*
G36*
X31376078Y-62447146D02*
X31199301Y-62270369D01*
X32118540Y-61351130D01*
X32295317Y-61527907D01*
X31376078Y-62447146D01*
X31376078Y-62447146D01*
G37*
D20*
X31393755Y-61545584D03*
D21*
G36*
X31022524Y-62093592D02*
X30845747Y-61916815D01*
X31764986Y-60997576D01*
X31941763Y-61174353D01*
X31022524Y-62093592D01*
X31022524Y-62093592D01*
G37*
D20*
X31040202Y-61192031D03*
D21*
G36*
X30668971Y-61740039D02*
X30492194Y-61563262D01*
X31411433Y-60644023D01*
X31588210Y-60820800D01*
X30668971Y-61740039D01*
X30668971Y-61740039D01*
G37*
D20*
X30686649Y-60838478D03*
D21*
G36*
X30315418Y-61386486D02*
X30138641Y-61209709D01*
X31057880Y-60290470D01*
X31234657Y-60467247D01*
X30315418Y-61386486D01*
X30315418Y-61386486D01*
G37*
D20*
X30333095Y-60484924D03*
D21*
G36*
X29961864Y-61032932D02*
X29785087Y-60856155D01*
X30704326Y-59936916D01*
X30881103Y-60113693D01*
X29961864Y-61032932D01*
X29961864Y-61032932D01*
G37*
D20*
X29979542Y-60131371D03*
D21*
G36*
X29608311Y-60679379D02*
X29431534Y-60502602D01*
X30350773Y-59583363D01*
X30527550Y-59760140D01*
X29608311Y-60679379D01*
X29608311Y-60679379D01*
G37*
D22*
X51500000Y-41341000D03*
X51500000Y-45659000D03*
D17*
X56137720Y-41000000D03*
X57062280Y-41000000D03*
D23*
X29862000Y-86700000D03*
X28338000Y-86700000D03*
X40238000Y-86700000D03*
X41762000Y-86700000D03*
X17862000Y-86700000D03*
X16338000Y-86700000D03*
X52338000Y-86700000D03*
X53862000Y-86700000D03*
D17*
X29562280Y-83600000D03*
X28637720Y-83600000D03*
X40537720Y-83600000D03*
X41462280Y-83600000D03*
X17562280Y-83600000D03*
X16637720Y-83600000D03*
X52637720Y-83600000D03*
X53562280Y-83600000D03*
D24*
X20884000Y-57811000D03*
X20884000Y-59589000D03*
X22916000Y-58700000D03*
X20884000Y-54211000D03*
X20884000Y-55989000D03*
X22916000Y-55100000D03*
M02*
