G04 #@! TF.GenerationSoftware,KiCad,Pcbnew,(5.0.0-rc2-dev-222-g3b0a758)*
G04 #@! TF.CreationDate,2018-07-05T12:59:24+02:00*
G04 #@! TF.ProjectId,bornhack_scale_it,626F726E6861636B5F7363616C655F69,rev?*
G04 #@! TF.SameCoordinates,PX2faf080PY1c9c380*
G04 #@! TF.FileFunction,Profile,NP*
%FSLAX46Y46*%
G04 Gerber Fmt 4.6, Leading zero omitted, Abs format (unit mm)*
G04 Created by KiCad (PCBNEW (5.0.0-rc2-dev-222-g3b0a758)) date Thursday, 05 July 2018 at 12:59:24*
%MOMM*%
%LPD*%
G01*
G04 APERTURE LIST*
%ADD10C,0.150000*%
%ADD11C,0.200000*%
G04 APERTURE END LIST*
D10*
X36666666Y-130000000D02*
G75*
G03X36666666Y-130000000I-1666666J0D01*
G01*
X32500000Y-130000000D02*
X37500000Y-130000000D01*
X35000000Y-127500000D02*
X35000000Y-132500000D01*
D11*
X47615013Y-127912140D02*
X47428163Y-128013558D01*
X47777811Y-127777822D02*
X47615013Y-127912140D01*
X47912132Y-127615026D02*
X47777811Y-127777822D01*
X48013552Y-127428175D02*
X47912132Y-127615026D01*
X48077648Y-127221693D02*
X48013552Y-127428175D01*
X48099997Y-127000003D02*
X48077648Y-127221693D01*
X48077648Y-126778312D02*
X48099997Y-127000003D01*
X48013552Y-126571830D02*
X48077648Y-126778312D01*
X47912132Y-126384980D02*
X48013552Y-126571830D01*
X47777811Y-126222184D02*
X47912132Y-126384980D01*
X47615013Y-126087865D02*
X47777811Y-126222184D01*
X47428163Y-125986447D02*
X47615013Y-126087865D01*
X47221684Y-125922353D02*
X47428163Y-125986447D01*
X47000000Y-125900005D02*
X47221684Y-125922353D01*
X46778309Y-125922353D02*
X47000000Y-125900005D01*
X46571827Y-125986447D02*
X46778309Y-125922353D01*
X46384976Y-126087865D02*
X46571827Y-125986447D01*
X46222180Y-126222184D02*
X46384976Y-126087865D01*
X46087862Y-126384980D02*
X46222180Y-126222184D01*
X45986444Y-126571830D02*
X46087862Y-126384980D01*
X45922350Y-126778312D02*
X45986444Y-126571830D01*
X45900002Y-127000003D02*
X45922350Y-126778312D01*
X45922350Y-127221693D02*
X45900002Y-127000003D01*
X45986444Y-127428175D02*
X45922350Y-127221693D01*
X46087862Y-127615026D02*
X45986444Y-127428175D01*
X46222180Y-127777822D02*
X46087862Y-127615026D01*
X46384976Y-127912140D02*
X46222180Y-127777822D01*
X46571827Y-128013558D02*
X46384976Y-127912140D01*
X46778309Y-128077652D02*
X46571827Y-128013558D01*
X47000000Y-128100000D02*
X46778309Y-128077652D01*
X47000000Y-128100000D02*
X47000000Y-128100000D01*
X47221684Y-128077652D02*
X47000000Y-128100000D01*
X47428163Y-128013558D02*
X47221684Y-128077652D01*
X22778310Y-128077652D02*
X22571828Y-128013558D01*
X22571828Y-128013558D02*
X22384977Y-127912140D01*
X22384977Y-127912140D02*
X22222181Y-127777822D01*
X64384976Y-87912143D02*
X64222180Y-87777822D01*
X64571827Y-88013563D02*
X64384976Y-87912143D01*
X64778309Y-88077660D02*
X64571827Y-88013563D01*
X64999999Y-88100008D02*
X64778309Y-88077660D01*
X64999999Y-88100008D02*
X64999999Y-88100008D01*
X65221683Y-88077660D02*
X64999999Y-88100008D01*
X65428163Y-88013563D02*
X65221683Y-88077660D01*
X65615013Y-87912143D02*
X65428163Y-88013563D01*
X65777810Y-87777822D02*
X65615013Y-87912143D01*
X65912131Y-87615025D02*
X65777810Y-87777822D01*
X66013552Y-87428174D02*
X65912131Y-87615025D01*
X66077648Y-87221695D02*
X66013552Y-87428174D01*
X66099997Y-87000011D02*
X66077648Y-87221695D01*
X66077648Y-86778320D02*
X66099997Y-87000011D01*
X66013552Y-86571838D02*
X66077648Y-86778320D01*
X65912131Y-86384988D02*
X66013552Y-86571838D01*
X65777810Y-86222192D02*
X65912131Y-86384988D01*
X65615013Y-86087873D02*
X65777810Y-86222192D01*
X65428163Y-85986455D02*
X65615013Y-86087873D01*
X65221683Y-85922361D02*
X65428163Y-85986455D01*
X64999999Y-85900014D02*
X65221683Y-85922361D01*
X64778309Y-85922361D02*
X64999999Y-85900014D01*
X64571827Y-85986455D02*
X64778309Y-85922361D01*
X64384976Y-86087873D02*
X64571827Y-85986455D01*
X64222180Y-86222192D02*
X64384976Y-86087873D01*
X64087861Y-86384988D02*
X64222180Y-86222192D01*
X63986444Y-86571838D02*
X64087861Y-86384988D01*
X63922349Y-86778320D02*
X63986444Y-86571838D01*
X63900002Y-87000011D02*
X63922349Y-86778320D01*
X63922349Y-87221695D02*
X63900002Y-87000011D01*
X63986444Y-87428174D02*
X63922349Y-87221695D01*
X64087861Y-87615025D02*
X63986444Y-87428174D01*
X64222180Y-87777822D02*
X64087861Y-87615025D01*
X23777811Y-126222184D02*
X23912132Y-126384980D01*
X63986444Y-51571840D02*
X64087861Y-51384986D01*
X63922349Y-51778324D02*
X63986444Y-51571840D01*
X63900002Y-52000016D02*
X63922349Y-51778324D01*
X63922349Y-52221700D02*
X63900002Y-52000016D01*
X63986444Y-52428179D02*
X63922349Y-52221700D01*
X64087861Y-52615029D02*
X63986444Y-52428179D01*
X64222180Y-52777827D02*
X64087861Y-52615029D01*
X64384976Y-52912147D02*
X64222180Y-52777827D01*
X64571827Y-53013568D02*
X64384976Y-52912147D01*
X64778309Y-53077664D02*
X64571827Y-53013568D01*
X64999999Y-53100013D02*
X64778309Y-53077664D01*
X64999999Y-50899997D02*
X65221683Y-50922345D01*
X64778309Y-50922345D02*
X64999999Y-50899997D01*
X64571827Y-50986442D02*
X64778309Y-50922345D01*
X64384976Y-51087863D02*
X64571827Y-50986442D01*
X64222180Y-51222186D02*
X64384976Y-51087863D01*
X64087861Y-51384986D02*
X64222180Y-51222186D01*
X65615013Y-51087863D02*
X65777810Y-51222186D01*
X65428163Y-50986442D02*
X65615013Y-51087863D01*
X65221683Y-50922345D02*
X65428163Y-50986442D01*
X64999999Y-53100013D02*
X64999999Y-53100013D01*
X65221683Y-53077664D02*
X64999999Y-53100013D01*
X65428163Y-53013568D02*
X65221683Y-53077664D01*
X65615013Y-52912147D02*
X65428163Y-53013568D01*
X65777810Y-52777827D02*
X65615013Y-52912147D01*
X65912131Y-52615029D02*
X65777810Y-52777827D01*
X66013552Y-52428179D02*
X65912131Y-52615029D01*
X66077648Y-52221700D02*
X66013552Y-52428179D01*
X66099997Y-52000016D02*
X66077648Y-52221700D01*
X66077648Y-51778324D02*
X66099997Y-52000016D01*
X66013552Y-51571840D02*
X66077648Y-51778324D01*
X65912131Y-51384986D02*
X66013552Y-51571840D01*
X65777810Y-51222186D02*
X65912131Y-51384986D01*
X22384977Y-126087865D02*
X22571828Y-125986447D01*
X23000000Y-128100000D02*
X23000000Y-128100000D01*
X23221685Y-128077652D02*
X23000000Y-128100000D01*
X21986445Y-127428175D02*
X21922350Y-127221693D01*
X24013553Y-127428175D02*
X23912132Y-127615026D01*
X24077649Y-127221693D02*
X24013553Y-127428175D01*
X23912132Y-126384980D02*
X24013553Y-126571830D01*
X23000000Y-125900005D02*
X23221685Y-125922353D01*
X24013553Y-126571830D02*
X24077649Y-126778312D01*
X22222181Y-127777822D02*
X22087863Y-127615026D01*
X23221685Y-125922353D02*
X23428164Y-125986447D01*
X23615014Y-126087865D02*
X23777811Y-126222184D01*
X22087863Y-127615026D02*
X21986445Y-127428175D01*
X21986445Y-126571830D02*
X22087863Y-126384980D01*
X21922350Y-127221693D02*
X21900003Y-127000003D01*
X22087863Y-126384980D02*
X22222181Y-126222184D01*
X22222181Y-126222184D02*
X22384977Y-126087865D01*
X23777811Y-127777822D02*
X23615014Y-127912140D01*
X23912132Y-127615026D02*
X23777811Y-127777822D01*
X24077649Y-126778312D02*
X24099998Y-127000003D01*
X21900003Y-127000003D02*
X21922350Y-126778312D01*
X23428164Y-128013558D02*
X23221685Y-128077652D01*
X23615014Y-127912140D02*
X23428164Y-128013558D01*
X21922350Y-126778312D02*
X21986445Y-126571830D01*
X22571828Y-125986447D02*
X22778310Y-125922353D01*
X23428164Y-125986447D02*
X23615014Y-126087865D01*
X24099998Y-127000003D02*
X24077649Y-127221693D01*
X22778310Y-125922353D02*
X23000000Y-125900005D01*
X69926744Y-56743158D02*
X69957284Y-56706175D01*
X69889729Y-56773666D02*
X69926744Y-56743158D01*
X69847243Y-56796697D02*
X69889729Y-56773666D01*
X69800292Y-56811250D02*
X69847243Y-56796697D01*
X69749881Y-56816324D02*
X69800292Y-56811250D01*
X69994914Y-56616785D02*
X69999995Y-56566382D01*
X69980342Y-56663717D02*
X69994914Y-56616785D01*
X69957284Y-56706175D02*
X69980342Y-56663717D01*
X69999995Y-56362303D02*
X69999995Y-56260264D01*
X69999995Y-56464343D02*
X69999995Y-56362303D01*
X69999995Y-56566382D02*
X69999995Y-56464343D01*
X68155825Y-55000069D02*
X67999515Y-55000069D01*
X68312135Y-55000069D02*
X68155825Y-55000069D01*
X68468446Y-55000069D02*
X68312135Y-55000069D01*
X68624756Y-55000069D02*
X68468446Y-55000069D01*
X68781067Y-55000069D02*
X68624756Y-55000069D01*
X68937377Y-55000069D02*
X68781067Y-55000069D01*
X69093688Y-55000069D02*
X68937377Y-55000069D01*
X69249998Y-55000069D02*
X69093688Y-55000069D01*
X69400919Y-55015332D02*
X69249998Y-55000069D01*
X69541593Y-55059096D02*
X69400919Y-55015332D01*
X69668977Y-55128323D02*
X69541593Y-55059096D01*
X69780026Y-55219974D02*
X69668977Y-55128323D01*
X69871696Y-55331012D02*
X69780026Y-55219974D01*
X69940944Y-55458399D02*
X69871696Y-55331012D01*
X69984725Y-55599096D02*
X69940944Y-55458399D01*
X69999995Y-55750067D02*
X69984725Y-55599096D01*
X69999995Y-55852106D02*
X69999995Y-55750067D01*
X69999995Y-55954145D02*
X69999995Y-55852106D01*
X69999995Y-56056185D02*
X69999995Y-55954145D01*
X69999995Y-56158224D02*
X69999995Y-56056185D01*
X69999995Y-56260264D02*
X69999995Y-56158224D01*
X66805046Y-41378011D02*
X66506429Y-41075984D01*
X67103663Y-41680038D02*
X66805046Y-41378011D01*
X67402280Y-41982065D02*
X67103663Y-41680038D01*
X67700897Y-42284093D02*
X67402280Y-41982065D01*
X67999515Y-42586120D02*
X67700897Y-42284093D01*
X67999515Y-44137864D02*
X67999515Y-42586120D01*
X67999515Y-45689607D02*
X67999515Y-44137864D01*
X67999515Y-47241351D02*
X67999515Y-45689607D01*
X67999515Y-48793095D02*
X67999515Y-47241351D01*
X67999515Y-50344838D02*
X67999515Y-48793095D01*
X67999515Y-51896582D02*
X67999515Y-50344838D01*
X67999515Y-53448326D02*
X67999515Y-51896582D01*
X67999515Y-55000069D02*
X67999515Y-53448326D01*
X61109277Y-1386287D02*
X60514752Y-1063589D01*
X61627269Y-1813668D02*
X61109277Y-1386287D01*
X62054653Y-2331658D02*
X61627269Y-1813668D01*
X62377353Y-2926184D02*
X62054653Y-2331658D01*
X62581295Y-3583171D02*
X62377353Y-2926184D01*
X62652403Y-4288544D02*
X62581295Y-3583171D01*
X62623121Y-4742787D02*
X62652403Y-4288544D01*
X62537726Y-5179310D02*
X62623121Y-4742787D01*
X62399893Y-5594518D02*
X62537726Y-5179310D01*
X62213299Y-5984820D02*
X62399893Y-5594518D01*
X61981619Y-6346622D02*
X62213299Y-5984820D01*
X61708529Y-6676331D02*
X61981619Y-6346622D01*
X61397706Y-6970355D02*
X61708529Y-6676331D01*
X61052824Y-7225100D02*
X61397706Y-6970355D01*
X61244893Y-10500153D02*
X61052824Y-7225100D01*
X61436963Y-13775206D02*
X61244893Y-10500153D01*
X61629032Y-17050259D02*
X61436963Y-13775206D01*
X61821102Y-20325312D02*
X61629032Y-17050259D01*
X62013171Y-23600366D02*
X61821102Y-20325312D01*
X62205241Y-26875419D02*
X62013171Y-23600366D01*
X62397310Y-30150472D02*
X62205241Y-26875419D01*
X62589380Y-33425525D02*
X62397310Y-30150472D01*
X62842032Y-33425525D02*
X62589380Y-33425525D01*
X63094684Y-33425525D02*
X62842032Y-33425525D01*
X63347336Y-33425525D02*
X63094684Y-33425525D01*
X63599988Y-33425525D02*
X63347336Y-33425525D01*
X63852640Y-33425525D02*
X63599988Y-33425525D01*
X64105292Y-33425525D02*
X63852640Y-33425525D01*
X64357944Y-33425525D02*
X64105292Y-33425525D01*
X64610596Y-33425525D02*
X64357944Y-33425525D01*
X64811470Y-33445935D02*
X64610596Y-33425525D01*
X64998869Y-33504430D02*
X64811470Y-33445935D01*
X65168690Y-33596909D02*
X64998869Y-33504430D01*
X65316832Y-33719270D02*
X65168690Y-33596909D01*
X65439193Y-33867412D02*
X65316832Y-33719270D01*
X65531673Y-34037234D02*
X65439193Y-33867412D01*
X65590168Y-34224632D02*
X65531673Y-34037234D01*
X65610578Y-34425507D02*
X65590168Y-34224632D01*
X65610578Y-34577391D02*
X65610578Y-34425507D01*
X65610578Y-34997540D02*
X65610578Y-34577391D01*
X65610578Y-35632704D02*
X65610578Y-34997540D01*
X65610578Y-36429629D02*
X65610578Y-35632704D01*
X65610578Y-37335064D02*
X65610578Y-36429629D01*
X65610578Y-38295756D02*
X65610578Y-37335064D01*
X65610578Y-39258453D02*
X65610578Y-38295756D01*
X65610578Y-40169902D02*
X65610578Y-39258453D01*
X65909195Y-40471929D02*
X65610578Y-40169902D01*
X66207812Y-40773957D02*
X65909195Y-40471929D01*
X66506429Y-41075984D02*
X66207812Y-40773957D01*
X52994848Y-33596909D02*
X52846703Y-33719270D01*
X53164673Y-33504430D02*
X52994848Y-33596909D01*
X53352077Y-33445935D02*
X53164673Y-33504430D01*
X53552959Y-33425525D02*
X53352077Y-33445935D01*
X53824045Y-33425525D02*
X53552959Y-33425525D01*
X54095131Y-33425525D02*
X53824045Y-33425525D01*
X54366217Y-33425525D02*
X54095131Y-33425525D01*
X54637303Y-33425525D02*
X54366217Y-33425525D01*
X54908389Y-33425525D02*
X54637303Y-33425525D01*
X55179474Y-33425525D02*
X54908389Y-33425525D01*
X55450560Y-33425525D02*
X55179474Y-33425525D01*
X55721646Y-33425525D02*
X55450560Y-33425525D01*
X55917651Y-30153335D02*
X55721646Y-33425525D01*
X56113655Y-26881146D02*
X55917651Y-30153335D01*
X56309660Y-23608957D02*
X56113655Y-26881146D01*
X56505664Y-20336767D02*
X56309660Y-23608957D01*
X56701668Y-17064578D02*
X56505664Y-20336767D01*
X56897673Y-13792389D02*
X56701668Y-17064578D01*
X57093677Y-10520199D02*
X56897673Y-13792389D01*
X57289682Y-7248010D02*
X57093677Y-10520199D01*
X56937227Y-6994066D02*
X57289682Y-7248010D01*
X56619338Y-6699555D02*
X56937227Y-6994066D01*
X56339845Y-6368191D02*
X56619338Y-6699555D01*
X56102580Y-6003687D02*
X56339845Y-6368191D01*
X55911372Y-5609757D02*
X56102580Y-6003687D01*
X55770052Y-5190114D02*
X55911372Y-5609757D01*
X55682451Y-4748472D02*
X55770052Y-5190114D01*
X55652400Y-4288544D02*
X55682451Y-4748472D01*
X55723507Y-3583171D02*
X55652400Y-4288544D01*
X55927447Y-2926184D02*
X55723507Y-3583171D01*
X56250145Y-2331658D02*
X55927447Y-2926184D01*
X56677526Y-1813668D02*
X56250145Y-2331658D01*
X57195516Y-1386287D02*
X56677526Y-1813668D01*
X57790042Y-1063589D02*
X57195516Y-1386287D01*
X58447029Y-859649D02*
X57790042Y-1063589D01*
X59152402Y-788542D02*
X58447029Y-859649D01*
X59857769Y-859649D02*
X59152402Y-788542D01*
X60514752Y-1063589D02*
X59857769Y-859649D01*
X52552955Y-36752045D02*
X52552955Y-37377210D01*
X52552955Y-36150840D02*
X52552955Y-36752045D01*
X52552955Y-35599916D02*
X52552955Y-36150840D01*
X52552955Y-35125597D02*
X52552955Y-35599916D01*
X52552955Y-34754207D02*
X52552955Y-35125597D01*
X52552955Y-34512069D02*
X52552955Y-34754207D01*
X52552955Y-34425507D02*
X52552955Y-34512069D01*
X52573365Y-34224632D02*
X52552955Y-34425507D01*
X52631861Y-34037234D02*
X52573365Y-34224632D01*
X52724341Y-33867412D02*
X52631861Y-34037234D01*
X52846703Y-33719270D02*
X52724341Y-33867412D01*
X29097970Y-37628193D02*
X29097970Y-37285077D01*
X29097970Y-38000009D02*
X29097970Y-37628193D01*
X32029843Y-38000009D02*
X29097970Y-38000009D01*
X34961716Y-38000009D02*
X32029843Y-38000009D01*
X37893589Y-38000009D02*
X34961716Y-38000009D01*
X40825463Y-38000009D02*
X37893589Y-38000009D01*
X43757336Y-38000009D02*
X40825463Y-38000009D01*
X46689209Y-38000009D02*
X43757336Y-38000009D01*
X49621082Y-38000009D02*
X46689209Y-38000009D01*
X52552955Y-38000009D02*
X49621082Y-38000009D01*
X52552955Y-37377210D02*
X52552955Y-38000009D01*
X29019065Y-35801122D02*
X28926585Y-35631301D01*
X29077560Y-35988521D02*
X29019065Y-35801122D01*
X29097970Y-36189396D02*
X29077560Y-35988521D01*
X29097970Y-36225193D02*
X29097970Y-36189396D01*
X29097970Y-36328296D02*
X29097970Y-36225193D01*
X29097970Y-36492271D02*
X29097970Y-36328296D01*
X29097970Y-36710682D02*
X29097970Y-36492271D01*
X29097970Y-36977095D02*
X29097970Y-36710682D01*
X29097970Y-37285077D02*
X29097970Y-36977095D01*
X28656077Y-35360798D02*
X28486252Y-35268319D01*
X28804222Y-35483159D02*
X28656077Y-35360798D01*
X28926585Y-35631301D02*
X28804222Y-35483159D01*
X28097966Y-35189414D02*
X27347966Y-35189414D01*
X28298848Y-35209824D02*
X28097966Y-35189414D01*
X28486252Y-35268319D02*
X28298848Y-35209824D01*
X23597967Y-35189414D02*
X22847967Y-35189414D01*
X24347967Y-35189414D02*
X23597967Y-35189414D01*
X25097967Y-35189414D02*
X24347967Y-35189414D01*
X25847966Y-35189414D02*
X25097967Y-35189414D01*
X26597966Y-35189414D02*
X25847966Y-35189414D01*
X27347966Y-35189414D02*
X26597966Y-35189414D01*
X21897092Y-35209824D02*
X21709693Y-35268319D01*
X22097967Y-35189414D02*
X21897092Y-35209824D01*
X22847967Y-35189414D02*
X22097967Y-35189414D01*
X21391730Y-35483159D02*
X21269369Y-35631301D01*
X21539872Y-35360798D02*
X21391730Y-35483159D01*
X21709693Y-35268319D02*
X21539872Y-35360798D01*
X21097985Y-36189396D02*
X21097985Y-36225229D01*
X21118394Y-35988521D02*
X21097985Y-36189396D01*
X21176890Y-35801122D02*
X21118394Y-35988521D01*
X21269369Y-35631301D02*
X21176890Y-35801122D01*
X1999495Y-47241351D02*
X1999495Y-48793095D01*
X1999495Y-45689607D02*
X1999495Y-47241351D01*
X1999495Y-44137864D02*
X1999495Y-45689607D01*
X1999495Y-42586120D02*
X1999495Y-44137864D01*
X2356751Y-42476630D02*
X1999495Y-42586120D01*
X2714008Y-42367141D02*
X2356751Y-42476630D01*
X3071264Y-42257652D02*
X2714008Y-42367141D01*
X3428520Y-42148162D02*
X3071264Y-42257652D01*
X3785777Y-42038673D02*
X3428520Y-42148162D01*
X4143033Y-41929183D02*
X3785777Y-42038673D01*
X4500290Y-41819694D02*
X4143033Y-41929183D01*
X4857546Y-41710204D02*
X4500290Y-41819694D01*
X4519991Y-40613383D02*
X4857546Y-41710204D01*
X4182437Y-39516561D02*
X4519991Y-40613383D01*
X3844882Y-38419740D02*
X4182437Y-39516561D01*
X3507327Y-37322918D02*
X3844882Y-38419740D01*
X3169772Y-36226097D02*
X3507327Y-37322918D01*
X2832218Y-35129275D02*
X3169772Y-36226097D01*
X2494663Y-34032454D02*
X2832218Y-35129275D01*
X2157108Y-32935632D02*
X2494663Y-34032454D01*
X1957799Y-31942662D02*
X2157108Y-32935632D01*
X1960187Y-30959937D02*
X1957799Y-31942662D01*
X2150970Y-30012590D02*
X1960187Y-30959937D01*
X2516846Y-29125752D02*
X2150970Y-30012590D01*
X3044511Y-28324555D02*
X2516846Y-29125752D01*
X3720663Y-27634130D02*
X3044511Y-28324555D01*
X4532000Y-27079608D02*
X3720663Y-27634130D01*
X5465218Y-26686121D02*
X4532000Y-27079608D01*
X6458195Y-26486805D02*
X5465218Y-26686121D01*
X7440923Y-26489188D02*
X6458195Y-26486805D01*
X8388271Y-26679968D02*
X7440923Y-26489188D01*
X9275109Y-27045841D02*
X8388271Y-26679968D01*
X10076306Y-27573504D02*
X9275109Y-27045841D01*
X10766732Y-28249655D02*
X10076306Y-27573504D01*
X11321257Y-29060992D02*
X10766732Y-28249655D01*
X11714750Y-29994210D02*
X11321257Y-29060992D01*
X12052738Y-31092434D02*
X11714750Y-29994210D01*
X12390726Y-32190657D02*
X12052738Y-31092434D01*
X12728715Y-33288881D02*
X12390726Y-32190657D01*
X13066703Y-34387105D02*
X12728715Y-33288881D01*
X13404691Y-35485329D02*
X13066703Y-34387105D01*
X13742679Y-36583552D02*
X13404691Y-35485329D01*
X14080667Y-37681776D02*
X13742679Y-36583552D01*
X14418655Y-38780000D02*
X14080667Y-37681776D01*
X14736791Y-38682501D02*
X14418655Y-38780000D01*
X15054926Y-38585002D02*
X14736791Y-38682501D01*
X15373062Y-38487503D02*
X15054926Y-38585002D01*
X15691198Y-38390004D02*
X15373062Y-38487503D01*
X16009334Y-38292505D02*
X15691198Y-38390004D01*
X16327469Y-38195007D02*
X16009334Y-38292505D01*
X16645605Y-38097508D02*
X16327469Y-38195007D01*
X16963741Y-38000009D02*
X16645605Y-38097508D01*
X17480521Y-38000009D02*
X16963741Y-38000009D01*
X17997302Y-38000009D02*
X17480521Y-38000009D01*
X18514082Y-38000009D02*
X17997302Y-38000009D01*
X19030863Y-38000009D02*
X18514082Y-38000009D01*
X19547643Y-38000009D02*
X19030863Y-38000009D01*
X20064424Y-38000009D02*
X19547643Y-38000009D01*
X20581204Y-38000009D02*
X20064424Y-38000009D01*
X21097985Y-38000009D02*
X20581204Y-38000009D01*
X21097985Y-37628441D02*
X21097985Y-38000009D01*
X21097985Y-37285441D02*
X21097985Y-37628441D01*
X21097985Y-36977474D02*
X21097985Y-37285441D01*
X21097985Y-36711005D02*
X21097985Y-36977474D01*
X21097985Y-36492498D02*
X21097985Y-36711005D01*
X21097985Y-36328417D02*
X21097985Y-36492498D01*
X21097985Y-36225229D02*
X21097985Y-36328417D01*
X1374738Y-55000069D02*
X1218548Y-55000069D01*
X1530927Y-55000069D02*
X1374738Y-55000069D01*
X1687116Y-55000069D02*
X1530927Y-55000069D01*
X1843306Y-55000069D02*
X1687116Y-55000069D01*
X1999495Y-55000069D02*
X1843306Y-55000069D01*
X1999495Y-53448326D02*
X1999495Y-55000069D01*
X1999495Y-51896582D02*
X1999495Y-53448326D01*
X1999495Y-50344838D02*
X1999495Y-51896582D01*
X1999495Y-48793095D02*
X1999495Y-50344838D01*
X749980Y-55000069D02*
X599060Y-55015332D01*
X906170Y-55000069D02*
X749980Y-55000069D01*
X1062359Y-55000069D02*
X906170Y-55000069D01*
X1218548Y-55000069D02*
X1062359Y-55000069D01*
X5064Y-56616785D02*
X19636Y-56663717D01*
X-17Y-56566382D02*
X5064Y-56616785D01*
X-17Y-56464343D02*
X-17Y-56566382D01*
X-17Y-56362303D02*
X-17Y-56464343D01*
X-17Y-56260264D02*
X-17Y-56362303D01*
X-17Y-56158224D02*
X-17Y-56260264D01*
X-17Y-56056185D02*
X-17Y-56158224D01*
X-17Y-55954145D02*
X-17Y-56056185D01*
X-17Y-55852106D02*
X-17Y-55954145D01*
X-17Y-55750067D02*
X-17Y-55852106D01*
X15253Y-55599096D02*
X-17Y-55750067D01*
X59034Y-55458399D02*
X15253Y-55599096D01*
X128282Y-55331012D02*
X59034Y-55458399D01*
X219952Y-55219974D02*
X128282Y-55331012D01*
X331001Y-55128323D02*
X219952Y-55219974D01*
X458385Y-55059096D02*
X331001Y-55128323D01*
X599060Y-55015332D02*
X458385Y-55059096D01*
X669227Y-56944577D02*
X780254Y-57036228D01*
X541837Y-56875351D02*
X669227Y-56944577D01*
X401117Y-56831587D02*
X541837Y-56875351D01*
X250097Y-56816324D02*
X401117Y-56831587D01*
X199686Y-56811250D02*
X250097Y-56816324D01*
X152735Y-56796697D02*
X199686Y-56811250D01*
X110250Y-56773666D02*
X152735Y-56796697D01*
X73234Y-56743158D02*
X110250Y-56773666D01*
X42695Y-56706175D02*
X73234Y-56743158D01*
X19636Y-56663717D02*
X42695Y-56706175D01*
X669227Y-58188065D02*
X541837Y-58257291D01*
X780254Y-58096413D02*
X669227Y-58188065D01*
X871886Y-57985375D02*
X780254Y-58096413D01*
X941092Y-57857989D02*
X871886Y-57985375D01*
X984838Y-57717291D02*
X941092Y-57857989D01*
X1000094Y-57566321D02*
X984838Y-57717291D01*
X984838Y-57415351D02*
X1000094Y-57566321D01*
X941092Y-57274653D02*
X984838Y-57415351D01*
X871886Y-57147266D02*
X941092Y-57274653D01*
X780254Y-57036228D02*
X871886Y-57147266D01*
X250097Y-58316318D02*
X199686Y-58321392D01*
X401117Y-58301055D02*
X250097Y-58316318D01*
X541837Y-58257291D02*
X401117Y-58301055D01*
X110250Y-58358975D02*
X73234Y-58389483D01*
X152735Y-58335944D02*
X110250Y-58358975D01*
X199686Y-58321392D02*
X152735Y-58335944D01*
X-17Y-58566260D02*
X-17Y-58647758D01*
X5064Y-58515857D02*
X-17Y-58566260D01*
X19636Y-58468925D02*
X5064Y-58515857D01*
X42695Y-58426467D02*
X19636Y-58468925D01*
X73234Y-58389483D02*
X42695Y-58426467D01*
X-17Y-59218244D02*
X5064Y-59268648D01*
X-17Y-59136746D02*
X-17Y-59218244D01*
X-17Y-59055248D02*
X-17Y-59136746D01*
X-17Y-58973750D02*
X-17Y-59055248D01*
X-17Y-58892252D02*
X-17Y-58973750D01*
X-17Y-58810754D02*
X-17Y-58892252D01*
X-17Y-58729256D02*
X-17Y-58810754D01*
X-17Y-58647758D02*
X-17Y-58729256D01*
X42695Y-59358037D02*
X73234Y-59395021D01*
X19636Y-59315579D02*
X42695Y-59358037D01*
X5064Y-59268648D02*
X19636Y-59315579D01*
X250097Y-59468186D02*
X401117Y-59483449D01*
X199686Y-59463112D02*
X250097Y-59468186D01*
X152735Y-59448560D02*
X199686Y-59463112D01*
X110250Y-59425529D02*
X152735Y-59448560D01*
X73234Y-59395021D02*
X110250Y-59425529D01*
X-17Y-61788630D02*
X-17Y-61870106D01*
X-17Y-61707153D02*
X-17Y-61788630D01*
X-17Y-61625677D02*
X-17Y-61707153D01*
X-17Y-61544200D02*
X-17Y-61625677D01*
X-17Y-61462724D02*
X-17Y-61544200D01*
X-17Y-61381247D02*
X-17Y-61462724D01*
X-17Y-61299771D02*
X-17Y-61381247D01*
X-17Y-61218294D02*
X-17Y-61299771D01*
X5064Y-61167891D02*
X-17Y-61218294D01*
X19636Y-61120960D02*
X5064Y-61167891D01*
X42695Y-61078502D02*
X19636Y-61120960D01*
X73234Y-61041518D02*
X42695Y-61078502D01*
X110250Y-61011010D02*
X73234Y-61041518D01*
X152735Y-60987979D02*
X110250Y-61011010D01*
X199686Y-60973426D02*
X152735Y-60987979D01*
X250097Y-60968353D02*
X199686Y-60973426D01*
X401117Y-60953082D02*
X250097Y-60968353D01*
X541837Y-60909299D02*
X401117Y-60953082D01*
X669227Y-60840045D02*
X541837Y-60909299D01*
X780254Y-60748362D02*
X669227Y-60840045D01*
X871886Y-60637292D02*
X780254Y-60748362D01*
X941092Y-60509878D02*
X871886Y-60637292D01*
X984838Y-60369161D02*
X941092Y-60509878D01*
X1000094Y-60218183D02*
X984838Y-60369161D01*
X984838Y-60067213D02*
X1000094Y-60218183D01*
X941092Y-59926515D02*
X984838Y-60067213D01*
X871886Y-59799129D02*
X941092Y-59926515D01*
X780254Y-59688091D02*
X871886Y-59799129D01*
X669227Y-59596439D02*
X780254Y-59688091D01*
X541837Y-59527213D02*
X669227Y-59596439D01*
X401117Y-59483449D02*
X541837Y-59527213D01*
X-17Y-64440643D02*
X-17Y-64522141D01*
X-17Y-64359145D02*
X-17Y-64440643D01*
X-17Y-64277647D02*
X-17Y-64359145D01*
X-17Y-64196149D02*
X-17Y-64277647D01*
X-17Y-64114651D02*
X-17Y-64196149D01*
X-17Y-64033153D02*
X-17Y-64114651D01*
X-17Y-63951655D02*
X-17Y-64033153D01*
X-17Y-63870157D02*
X-17Y-63951655D01*
X5064Y-63819753D02*
X-17Y-63870157D01*
X19636Y-63772822D02*
X5064Y-63819753D01*
X42695Y-63730364D02*
X19636Y-63772822D01*
X73234Y-63693380D02*
X42695Y-63730364D01*
X110250Y-63662872D02*
X73234Y-63693380D01*
X152735Y-63639841D02*
X110250Y-63662872D01*
X199686Y-63625288D02*
X152735Y-63639841D01*
X250097Y-63620215D02*
X199686Y-63625288D01*
X401117Y-63604952D02*
X250097Y-63620215D01*
X541837Y-63561188D02*
X401117Y-63604952D01*
X669227Y-63491962D02*
X541837Y-63561188D01*
X780254Y-63400310D02*
X669227Y-63491962D01*
X871886Y-63289272D02*
X780254Y-63400310D01*
X941092Y-63161885D02*
X871886Y-63289272D01*
X984838Y-63021188D02*
X941092Y-63161885D01*
X1000094Y-62870218D02*
X984838Y-63021188D01*
X984838Y-62719240D02*
X1000094Y-62870218D01*
X941092Y-62578523D02*
X984838Y-62719240D01*
X871886Y-62451109D02*
X941092Y-62578523D01*
X780254Y-62340039D02*
X871886Y-62451109D01*
X669227Y-62248356D02*
X780254Y-62340039D01*
X541837Y-62179102D02*
X669227Y-62248356D01*
X401117Y-62135319D02*
X541837Y-62179102D01*
X250097Y-62120048D02*
X401117Y-62135319D01*
X199686Y-62114975D02*
X250097Y-62120048D01*
X152735Y-62100422D02*
X199686Y-62114975D01*
X110250Y-62077391D02*
X152735Y-62100422D01*
X73234Y-62046883D02*
X110250Y-62077391D01*
X42695Y-62009899D02*
X73234Y-62046883D01*
X19636Y-61967441D02*
X42695Y-62009899D01*
X5064Y-61920510D02*
X19636Y-61967441D01*
X-17Y-61870106D02*
X5064Y-61920510D01*
X152735Y-64752456D02*
X199686Y-64767009D01*
X110250Y-64729425D02*
X152735Y-64752456D01*
X73234Y-64698917D02*
X110250Y-64729425D01*
X42695Y-64661934D02*
X73234Y-64698917D01*
X19636Y-64619476D02*
X42695Y-64661934D01*
X5064Y-64572544D02*
X19636Y-64619476D01*
X-17Y-64522141D02*
X5064Y-64572544D01*
X780254Y-64992074D02*
X871886Y-65103143D01*
X669227Y-64900391D02*
X780254Y-64992074D01*
X541837Y-64831136D02*
X669227Y-64900391D01*
X401117Y-64787353D02*
X541837Y-64831136D01*
X250097Y-64772083D02*
X401117Y-64787353D01*
X199686Y-64767009D02*
X250097Y-64772083D01*
X941092Y-65813793D02*
X871886Y-65941122D01*
X984838Y-65673158D02*
X941092Y-65813793D01*
X1000094Y-65522252D02*
X984838Y-65673158D01*
X984838Y-65371275D02*
X1000094Y-65522252D01*
X941092Y-65230558D02*
X984838Y-65371275D01*
X871886Y-65103143D02*
X941092Y-65230558D01*
X-17Y-66522019D02*
X-17Y-66603538D01*
X5064Y-66471608D02*
X-17Y-66522019D01*
X19636Y-66424657D02*
X5064Y-66471608D01*
X42695Y-66382172D02*
X19636Y-66424657D01*
X73234Y-66345156D02*
X42695Y-66382172D01*
X110250Y-66314617D02*
X73234Y-66345156D01*
X152735Y-66291558D02*
X110250Y-66314617D01*
X199686Y-66276986D02*
X152735Y-66291558D01*
X250097Y-66271905D02*
X199686Y-66276986D01*
X401117Y-66256650D02*
X250097Y-66271905D01*
X541837Y-66212908D02*
X401117Y-66256650D01*
X669227Y-66143715D02*
X541837Y-66212908D01*
X780254Y-66052108D02*
X669227Y-66143715D01*
X871886Y-65941122D02*
X780254Y-66052108D01*
X780254Y-68704099D02*
X669227Y-68795731D01*
X871886Y-68593072D02*
X780254Y-68704099D01*
X941092Y-68465683D02*
X871886Y-68593072D01*
X984838Y-68324962D02*
X941092Y-68465683D01*
X1000094Y-68173942D02*
X984838Y-68324962D01*
X984838Y-68023036D02*
X1000094Y-68173942D01*
X941092Y-67882401D02*
X984838Y-68023036D01*
X871886Y-67755072D02*
X941092Y-67882401D01*
X780254Y-67644086D02*
X871886Y-67755072D01*
X669227Y-67552479D02*
X780254Y-67644086D01*
X541837Y-67483287D02*
X669227Y-67552479D01*
X401117Y-67439545D02*
X541837Y-67483287D01*
X250097Y-67424289D02*
X401117Y-67439545D01*
X199686Y-67419209D02*
X250097Y-67424289D01*
X152735Y-67404636D02*
X199686Y-67419209D01*
X110250Y-67381578D02*
X152735Y-67404636D01*
X73234Y-67351038D02*
X110250Y-67381578D01*
X42695Y-67314023D02*
X73234Y-67351038D01*
X19636Y-67271537D02*
X42695Y-67314023D01*
X5064Y-67224586D02*
X19636Y-67271537D01*
X-17Y-67174175D02*
X5064Y-67224586D01*
X-17Y-67092656D02*
X-17Y-67174175D01*
X-17Y-67011136D02*
X-17Y-67092656D01*
X-17Y-66929617D02*
X-17Y-67011136D01*
X-17Y-66848097D02*
X-17Y-66929617D01*
X-17Y-66766578D02*
X-17Y-66848097D01*
X-17Y-66685058D02*
X-17Y-66766578D01*
X-17Y-66603538D02*
X-17Y-66685058D01*
X250097Y-70075979D02*
X401117Y-70091235D01*
X199686Y-70070899D02*
X250097Y-70075979D01*
X152735Y-70056326D02*
X199686Y-70070899D01*
X110250Y-70033268D02*
X152735Y-70056326D01*
X73234Y-70002728D02*
X110250Y-70033268D01*
X42695Y-69965713D02*
X73234Y-70002728D01*
X19636Y-69923227D02*
X42695Y-69965713D01*
X5064Y-69876276D02*
X19636Y-69923227D01*
X-17Y-69825865D02*
X5064Y-69876276D01*
X-17Y-69744389D02*
X-17Y-69825865D01*
X-17Y-69662912D02*
X-17Y-69744389D01*
X-17Y-69581436D02*
X-17Y-69662912D01*
X-17Y-69499959D02*
X-17Y-69581436D01*
X-17Y-69418483D02*
X-17Y-69499959D01*
X-17Y-69337006D02*
X-17Y-69418483D01*
X-17Y-69255530D02*
X-17Y-69337006D01*
X-17Y-69174053D02*
X-17Y-69255530D01*
X5064Y-69123643D02*
X-17Y-69174053D01*
X19636Y-69076692D02*
X5064Y-69123643D01*
X42695Y-69034206D02*
X19636Y-69076692D01*
X73234Y-68997191D02*
X42695Y-69034206D01*
X110250Y-68966651D02*
X73234Y-68997191D01*
X152735Y-68943593D02*
X110250Y-68966651D01*
X199686Y-68929020D02*
X152735Y-68943593D01*
X250097Y-68923939D02*
X199686Y-68929020D01*
X401117Y-68908683D02*
X250097Y-68923939D01*
X541837Y-68864937D02*
X401117Y-68908683D01*
X669227Y-68795731D02*
X541837Y-68864937D01*
X-17Y-72070517D02*
X-17Y-72151994D01*
X-17Y-71989041D02*
X-17Y-72070517D01*
X-17Y-71907564D02*
X-17Y-71989041D01*
X-17Y-71826088D02*
X-17Y-71907564D01*
X5064Y-71775677D02*
X-17Y-71826088D01*
X19636Y-71728726D02*
X5064Y-71775677D01*
X42695Y-71686241D02*
X19636Y-71728726D01*
X73234Y-71649225D02*
X42695Y-71686241D01*
X110250Y-71618686D02*
X73234Y-71649225D01*
X152735Y-71595627D02*
X110250Y-71618686D01*
X199686Y-71581055D02*
X152735Y-71595627D01*
X250097Y-71575974D02*
X199686Y-71581055D01*
X401117Y-71560718D02*
X250097Y-71575974D01*
X541837Y-71516971D02*
X401117Y-71560718D01*
X669227Y-71447766D02*
X541837Y-71516971D01*
X780254Y-71356134D02*
X669227Y-71447766D01*
X871886Y-71245107D02*
X780254Y-71356134D01*
X941092Y-71117717D02*
X871886Y-71245107D01*
X984838Y-70976996D02*
X941092Y-71117717D01*
X1000094Y-70825977D02*
X984838Y-70976996D01*
X984838Y-70674957D02*
X1000094Y-70825977D01*
X941092Y-70534236D02*
X984838Y-70674957D01*
X871886Y-70406847D02*
X941092Y-70534236D01*
X780254Y-70295820D02*
X871886Y-70406847D01*
X669227Y-70204187D02*
X780254Y-70295820D01*
X541837Y-70134982D02*
X669227Y-70204187D01*
X401117Y-70091235D02*
X541837Y-70134982D01*
X250097Y-72728014D02*
X401117Y-72743270D01*
X199686Y-72722933D02*
X250097Y-72728014D01*
X152735Y-72708361D02*
X199686Y-72722933D01*
X110250Y-72685302D02*
X152735Y-72708361D01*
X73234Y-72654763D02*
X110250Y-72685302D01*
X42695Y-72617747D02*
X73234Y-72654763D01*
X19636Y-72575262D02*
X42695Y-72617747D01*
X5064Y-72528311D02*
X19636Y-72575262D01*
X-17Y-72477900D02*
X5064Y-72528311D01*
X-17Y-72396423D02*
X-17Y-72477900D01*
X-17Y-72314947D02*
X-17Y-72396423D01*
X-17Y-72233470D02*
X-17Y-72314947D01*
X-17Y-72151994D02*
X-17Y-72233470D01*
X1000094Y-73478011D02*
X984838Y-73628917D01*
X984838Y-73326992D02*
X1000094Y-73478011D01*
X941092Y-73186271D02*
X984838Y-73326992D01*
X871886Y-73058881D02*
X941092Y-73186271D01*
X780254Y-72947854D02*
X871886Y-73058881D01*
X669227Y-72856222D02*
X780254Y-72947854D01*
X541837Y-72787017D02*
X669227Y-72856222D01*
X401117Y-72743270D02*
X541837Y-72787017D01*
X73234Y-74300915D02*
X42695Y-74337931D01*
X110250Y-74270376D02*
X73234Y-74300915D01*
X152735Y-74247317D02*
X110250Y-74270376D01*
X199686Y-74232745D02*
X152735Y-74247317D01*
X250097Y-74227664D02*
X199686Y-74232745D01*
X401117Y-74212409D02*
X250097Y-74227664D01*
X541837Y-74168667D02*
X401117Y-74212409D01*
X669227Y-74099474D02*
X541837Y-74168667D01*
X780254Y-74007867D02*
X669227Y-74099474D01*
X871886Y-73896881D02*
X780254Y-74007867D01*
X941092Y-73769552D02*
X871886Y-73896881D01*
X984838Y-73628917D02*
X941092Y-73769552D01*
X-17Y-74640817D02*
X-17Y-74722337D01*
X-17Y-74559297D02*
X-17Y-74640817D01*
X-17Y-74477778D02*
X-17Y-74559297D01*
X5064Y-74427367D02*
X-17Y-74477778D01*
X19636Y-74380416D02*
X5064Y-74427367D01*
X42695Y-74337931D02*
X19636Y-74380416D01*
X5064Y-75180345D02*
X19636Y-75227296D01*
X-17Y-75129934D02*
X5064Y-75180345D01*
X-17Y-75048415D02*
X-17Y-75129934D01*
X-17Y-74966895D02*
X-17Y-75048415D01*
X-17Y-74885376D02*
X-17Y-74966895D01*
X-17Y-74803856D02*
X-17Y-74885376D01*
X-17Y-74722337D02*
X-17Y-74803856D01*
X73234Y-75306797D02*
X110250Y-75337337D01*
X42695Y-75269782D02*
X73234Y-75306797D01*
X19636Y-75227296D02*
X42695Y-75269782D01*
X669227Y-75508238D02*
X780254Y-75599845D01*
X541837Y-75439046D02*
X669227Y-75508238D01*
X401117Y-75395304D02*
X541837Y-75439046D01*
X250097Y-75380048D02*
X401117Y-75395304D01*
X199686Y-75374968D02*
X250097Y-75380048D01*
X152735Y-75360395D02*
X199686Y-75374968D01*
X110250Y-75337337D02*
X152735Y-75360395D01*
X-17Y-77211289D02*
X-17Y-77292765D01*
X-17Y-77129812D02*
X-17Y-77211289D01*
X5064Y-77079402D02*
X-17Y-77129812D01*
X19636Y-77032451D02*
X5064Y-77079402D01*
X42695Y-76989965D02*
X19636Y-77032451D01*
X73234Y-76952950D02*
X42695Y-76989965D01*
X110250Y-76922410D02*
X73234Y-76952950D01*
X152735Y-76899352D02*
X110250Y-76922410D01*
X199686Y-76884779D02*
X152735Y-76899352D01*
X250097Y-76879698D02*
X199686Y-76884779D01*
X401117Y-76864442D02*
X250097Y-76879698D01*
X541837Y-76820696D02*
X401117Y-76864442D01*
X669227Y-76751490D02*
X541837Y-76820696D01*
X780254Y-76659858D02*
X669227Y-76751490D01*
X871886Y-76548831D02*
X780254Y-76659858D01*
X941092Y-76421442D02*
X871886Y-76548831D01*
X984838Y-76280721D02*
X941092Y-76421442D01*
X1000094Y-76129701D02*
X984838Y-76280721D01*
X984838Y-75978795D02*
X1000094Y-76129701D01*
X941092Y-75838160D02*
X984838Y-75978795D01*
X871886Y-75710831D02*
X941092Y-75838160D01*
X780254Y-75599845D02*
X871886Y-75710831D01*
X-17Y-77618671D02*
X-17Y-77700148D01*
X-17Y-77537195D02*
X-17Y-77618671D01*
X-17Y-77455718D02*
X-17Y-77537195D01*
X-17Y-77374242D02*
X-17Y-77455718D01*
X-17Y-77292765D02*
X-17Y-77374242D01*
X73234Y-77958487D02*
X110250Y-77989027D01*
X42695Y-77921472D02*
X73234Y-77958487D01*
X19636Y-77878986D02*
X42695Y-77921472D01*
X5064Y-77832035D02*
X19636Y-77878986D01*
X-17Y-77781624D02*
X5064Y-77832035D01*
X-17Y-77700148D02*
X-17Y-77781624D01*
X250097Y-78031738D02*
X401117Y-78046994D01*
X199686Y-78026658D02*
X250097Y-78031738D01*
X152735Y-78012085D02*
X199686Y-78026658D01*
X110250Y-77989027D02*
X152735Y-78012085D01*
X780254Y-78251579D02*
X871886Y-78362606D01*
X669227Y-78159946D02*
X780254Y-78251579D01*
X541837Y-78090741D02*
X669227Y-78159946D01*
X401117Y-78046994D02*
X541837Y-78090741D01*
X1000094Y-78781736D02*
X984838Y-78932755D01*
X984838Y-78630716D02*
X1000094Y-78781736D01*
X941092Y-78489995D02*
X984838Y-78630716D01*
X871886Y-78362606D02*
X941092Y-78489995D01*
X669227Y-79403525D02*
X541837Y-79472730D01*
X780254Y-79311893D02*
X669227Y-79403525D01*
X871886Y-79200866D02*
X780254Y-79311893D01*
X941092Y-79073476D02*
X871886Y-79200866D01*
X984838Y-78932755D02*
X941092Y-79073476D01*
X152735Y-79551386D02*
X110250Y-79574445D01*
X199686Y-79536814D02*
X152735Y-79551386D01*
X250097Y-79531733D02*
X199686Y-79536814D01*
X401117Y-79516477D02*
X250097Y-79531733D01*
X541837Y-79472730D02*
X401117Y-79516477D01*
X-17Y-79781847D02*
X-17Y-79863323D01*
X5064Y-79731436D02*
X-17Y-79781847D01*
X19636Y-79684485D02*
X5064Y-79731436D01*
X42695Y-79642000D02*
X19636Y-79684485D01*
X73234Y-79604984D02*
X42695Y-79642000D01*
X110250Y-79574445D02*
X73234Y-79604984D01*
X-17Y-80189229D02*
X-17Y-80270706D01*
X-17Y-80107753D02*
X-17Y-80189229D01*
X-17Y-80026276D02*
X-17Y-80107753D01*
X-17Y-79944800D02*
X-17Y-80026276D01*
X-17Y-79863323D02*
X-17Y-79944800D01*
X199686Y-80678692D02*
X250097Y-80683773D01*
X152735Y-80664120D02*
X199686Y-80678692D01*
X110250Y-80641061D02*
X152735Y-80664120D01*
X73234Y-80610522D02*
X110250Y-80641061D01*
X42695Y-80573506D02*
X73234Y-80610522D01*
X19636Y-80531021D02*
X42695Y-80573506D01*
X5064Y-80484070D02*
X19636Y-80531021D01*
X-17Y-80433659D02*
X5064Y-80484070D01*
X-17Y-80352182D02*
X-17Y-80433659D01*
X-17Y-80270706D02*
X-17Y-80352182D01*
X669227Y-80811981D02*
X780254Y-80903613D01*
X541837Y-80742776D02*
X669227Y-80811981D01*
X401117Y-80699029D02*
X541837Y-80742776D01*
X250097Y-80683773D02*
X401117Y-80699029D01*
X780254Y-81963626D02*
X669227Y-82055233D01*
X871886Y-81852640D02*
X780254Y-81963626D01*
X941092Y-81725311D02*
X871886Y-81852640D01*
X984838Y-81584676D02*
X941092Y-81725311D01*
X1000094Y-81433770D02*
X984838Y-81584676D01*
X984838Y-81282751D02*
X1000094Y-81433770D01*
X941092Y-81142030D02*
X984838Y-81282751D01*
X871886Y-81014640D02*
X941092Y-81142030D01*
X780254Y-80903613D02*
X871886Y-81014640D01*
X19636Y-82336175D02*
X5064Y-82383126D01*
X42695Y-82293690D02*
X19636Y-82336175D01*
X73234Y-82256674D02*
X42695Y-82293690D01*
X110250Y-82226135D02*
X73234Y-82256674D01*
X152735Y-82203076D02*
X110250Y-82226135D01*
X199686Y-82188504D02*
X152735Y-82203076D01*
X250097Y-82183423D02*
X199686Y-82188504D01*
X401117Y-82168168D02*
X250097Y-82183423D01*
X541837Y-82124426D02*
X401117Y-82168168D01*
X669227Y-82055233D02*
X541837Y-82124426D01*
X-17Y-83147964D02*
X-17Y-83250025D01*
X-17Y-83045903D02*
X-17Y-83147964D01*
X-17Y-82943842D02*
X-17Y-83045903D01*
X-17Y-82841781D02*
X-17Y-82943842D01*
X-17Y-82739720D02*
X-17Y-82841781D01*
X-17Y-82637659D02*
X-17Y-82739720D01*
X-17Y-82535598D02*
X-17Y-82637659D01*
X-17Y-82433537D02*
X-17Y-82535598D01*
X5064Y-82383126D02*
X-17Y-82433537D01*
X599060Y-83984752D02*
X749980Y-84000022D01*
X458385Y-83940971D02*
X599060Y-83984752D01*
X331001Y-83871723D02*
X458385Y-83940971D01*
X219952Y-83780052D02*
X331001Y-83871723D01*
X128282Y-83669003D02*
X219952Y-83780052D01*
X59034Y-83541620D02*
X128282Y-83669003D01*
X15253Y-83400945D02*
X59034Y-83541620D01*
X-17Y-83250025D02*
X15253Y-83400945D01*
X1062359Y-84000022D02*
X1218548Y-84000022D01*
X906170Y-84000022D02*
X1062359Y-84000022D01*
X749980Y-84000022D02*
X906170Y-84000022D01*
X1687116Y-84000022D02*
X1843306Y-84000022D01*
X1530927Y-84000022D02*
X1687116Y-84000022D01*
X1374738Y-84000022D02*
X1530927Y-84000022D01*
X1218548Y-84000022D02*
X1374738Y-84000022D01*
X1999495Y-85880261D02*
X1999495Y-87760500D01*
X1999495Y-84000022D02*
X1999495Y-85880261D01*
X1843306Y-84000022D02*
X1999495Y-84000022D01*
X5174495Y-102220890D02*
X5703662Y-102750716D01*
X4645328Y-101691064D02*
X5174495Y-102220890D01*
X4116162Y-101161237D02*
X4645328Y-101691064D01*
X3586995Y-100631411D02*
X4116162Y-101161237D01*
X3057828Y-100101585D02*
X3586995Y-100631411D01*
X2528662Y-99571759D02*
X3057828Y-100101585D01*
X1999495Y-99041933D02*
X2528662Y-99571759D01*
X1999495Y-97161694D02*
X1999495Y-99041933D01*
X1999495Y-95281455D02*
X1999495Y-97161694D01*
X1999495Y-93401216D02*
X1999495Y-95281455D01*
X1999495Y-91520977D02*
X1999495Y-93401216D01*
X1999495Y-89640739D02*
X1999495Y-91520977D01*
X1999495Y-87760500D02*
X1999495Y-89640739D01*
X6232828Y-109078465D02*
X6232828Y-111977427D01*
X6232828Y-106179503D02*
X6232828Y-109078465D01*
X6232828Y-103280542D02*
X6232828Y-106179503D01*
X5703662Y-102750716D02*
X6232828Y-103280542D01*
X6232828Y-117775350D02*
X6232828Y-120674312D01*
X6232828Y-114876389D02*
X6232828Y-117775350D01*
X6232828Y-111977427D02*
X6232828Y-114876389D01*
X8002477Y-128236124D02*
X8444889Y-128677097D01*
X7560065Y-127795152D02*
X8002477Y-128236124D01*
X7117653Y-127354180D02*
X7560065Y-127795152D01*
X6675240Y-126913208D02*
X7117653Y-127354180D01*
X6232828Y-126472236D02*
X6675240Y-126913208D01*
X6232828Y-123573274D02*
X6232828Y-126472236D01*
X6232828Y-120674312D02*
X6232828Y-123573274D01*
X66229941Y-128236124D02*
X66672335Y-127795152D01*
X65787548Y-128677097D02*
X66229941Y-128236124D01*
X65345155Y-129118069D02*
X65787548Y-128677097D01*
X64902761Y-129559041D02*
X65345155Y-129118069D01*
X64460368Y-130000013D02*
X64902761Y-129559041D01*
X57624338Y-130000013D02*
X64460368Y-130000013D01*
X50788307Y-130000013D02*
X57624338Y-130000013D01*
X43952277Y-130000013D02*
X50788307Y-130000013D01*
X37116247Y-130000013D02*
X43952277Y-130000013D01*
X30280216Y-130000013D02*
X37116247Y-130000013D01*
X23444186Y-130000013D02*
X30280216Y-130000013D01*
X16608156Y-130000013D02*
X23444186Y-130000013D01*
X9772126Y-130000013D02*
X16608156Y-130000013D01*
X9329713Y-129559041D02*
X9772126Y-130000013D01*
X8887301Y-129118069D02*
X9329713Y-129559041D01*
X8444889Y-128677097D02*
X8887301Y-129118069D01*
X67557121Y-126913208D02*
X67999515Y-126472236D01*
X67114728Y-127354180D02*
X67557121Y-126913208D01*
X66672335Y-127795152D02*
X67114728Y-127354180D01*
X67999515Y-115854182D02*
X67999515Y-110545155D01*
X67999515Y-121163209D02*
X67999515Y-115854182D01*
X67999515Y-126472236D02*
X67999515Y-121163209D01*
X67999515Y-99927102D02*
X67999515Y-94618075D01*
X67999515Y-105236129D02*
X67999515Y-99927102D01*
X67999515Y-110545155D02*
X67999515Y-105236129D01*
X68624756Y-84000022D02*
X68781067Y-84000022D01*
X68468446Y-84000022D02*
X68624756Y-84000022D01*
X68312135Y-84000022D02*
X68468446Y-84000022D01*
X68155825Y-84000022D02*
X68312135Y-84000022D01*
X67999515Y-84000022D02*
X68155825Y-84000022D01*
X67999515Y-89309049D02*
X67999515Y-84000022D01*
X67999515Y-94618075D02*
X67999515Y-89309049D01*
X69980342Y-82336175D02*
X69957284Y-82293690D01*
X69994914Y-82383126D02*
X69980342Y-82336175D01*
X69999995Y-82433537D02*
X69994914Y-82383126D01*
X69999995Y-82535598D02*
X69999995Y-82433537D01*
X69999995Y-82637659D02*
X69999995Y-82535598D01*
X69999995Y-82739720D02*
X69999995Y-82637659D01*
X69999995Y-82841781D02*
X69999995Y-82739720D01*
X69999995Y-82943842D02*
X69999995Y-82841781D01*
X69999995Y-83045903D02*
X69999995Y-82943842D01*
X69999995Y-83147964D02*
X69999995Y-83045903D01*
X69999995Y-83250025D02*
X69999995Y-83147964D01*
X69984725Y-83400945D02*
X69999995Y-83250025D01*
X69940944Y-83541620D02*
X69984725Y-83400945D01*
X69871696Y-83669003D02*
X69940944Y-83541620D01*
X69780026Y-83780052D02*
X69871696Y-83669003D01*
X69668977Y-83871723D02*
X69780026Y-83780052D01*
X69541593Y-83940971D02*
X69668977Y-83871723D01*
X69400919Y-83984752D02*
X69541593Y-83940971D01*
X69249998Y-84000022D02*
X69400919Y-83984752D01*
X69093688Y-84000022D02*
X69249998Y-84000022D01*
X68937377Y-84000022D02*
X69093688Y-84000022D01*
X68781067Y-84000022D02*
X68937377Y-84000022D01*
X69847243Y-82203076D02*
X69800292Y-82188504D01*
X69889729Y-82226135D02*
X69847243Y-82203076D01*
X69926744Y-82256674D02*
X69889729Y-82226135D01*
X69957284Y-82293690D02*
X69926744Y-82256674D01*
X69219724Y-81963626D02*
X69128092Y-81852640D01*
X69330751Y-82055233D02*
X69219724Y-81963626D01*
X69458141Y-82124426D02*
X69330751Y-82055233D01*
X69598862Y-82168168D02*
X69458141Y-82124426D01*
X69749881Y-82183423D02*
X69598862Y-82168168D01*
X69800292Y-82188504D02*
X69749881Y-82183423D01*
X69015140Y-81584676D02*
X68999884Y-81433770D01*
X69058887Y-81725311D02*
X69015140Y-81584676D01*
X69128092Y-81852640D02*
X69058887Y-81725311D01*
X69058887Y-81142030D02*
X69128092Y-81014640D01*
X69015140Y-81282751D02*
X69058887Y-81142030D01*
X68999884Y-81433770D02*
X69015140Y-81282751D01*
X69330751Y-80811981D02*
X69458141Y-80742776D01*
X69219724Y-80903613D02*
X69330751Y-80811981D01*
X69128092Y-81014640D02*
X69219724Y-80903613D01*
X69749881Y-80683773D02*
X69800292Y-80678692D01*
X69598862Y-80699029D02*
X69749881Y-80683773D01*
X69458141Y-80742776D02*
X69598862Y-80699029D01*
X69994914Y-80484070D02*
X69999995Y-80433659D01*
X69980342Y-80531021D02*
X69994914Y-80484070D01*
X69957284Y-80573506D02*
X69980342Y-80531021D01*
X69926744Y-80610522D02*
X69957284Y-80573506D01*
X69889729Y-80641061D02*
X69926744Y-80610522D01*
X69847243Y-80664120D02*
X69889729Y-80641061D01*
X69800292Y-80678692D02*
X69847243Y-80664120D01*
X69999995Y-80270706D02*
X69999995Y-80189229D01*
X69999995Y-80352182D02*
X69999995Y-80270706D01*
X69999995Y-80433659D02*
X69999995Y-80352182D01*
X69999995Y-79863323D02*
X69999995Y-79781847D01*
X69999995Y-79944800D02*
X69999995Y-79863323D01*
X69999995Y-80026276D02*
X69999995Y-79944800D01*
X69999995Y-80107753D02*
X69999995Y-80026276D01*
X69999995Y-80189229D02*
X69999995Y-80107753D01*
X69128092Y-79200866D02*
X69058887Y-79073476D01*
X69219724Y-79311893D02*
X69128092Y-79200866D01*
X69330751Y-79403525D02*
X69219724Y-79311893D01*
X69458141Y-79472730D02*
X69330751Y-79403525D01*
X69598862Y-79516477D02*
X69458141Y-79472730D01*
X69749881Y-79531733D02*
X69598862Y-79516477D01*
X69800292Y-79536814D02*
X69749881Y-79531733D01*
X69847243Y-79551386D02*
X69800292Y-79536814D01*
X69889729Y-79574445D02*
X69847243Y-79551386D01*
X69926744Y-79604984D02*
X69889729Y-79574445D01*
X69957284Y-79642000D02*
X69926744Y-79604984D01*
X69980342Y-79684485D02*
X69957284Y-79642000D01*
X69994914Y-79731436D02*
X69980342Y-79684485D01*
X69999995Y-79781847D02*
X69994914Y-79731436D01*
X69330751Y-78159946D02*
X69458141Y-78090741D01*
X69219724Y-78251579D02*
X69330751Y-78159946D01*
X69128092Y-78362606D02*
X69219724Y-78251579D01*
X69058887Y-78489995D02*
X69128092Y-78362606D01*
X69015140Y-78630716D02*
X69058887Y-78489995D01*
X68999884Y-78781736D02*
X69015140Y-78630716D01*
X69015140Y-78932755D02*
X68999884Y-78781736D01*
X69058887Y-79073476D02*
X69015140Y-78932755D01*
X69994914Y-77079402D02*
X69980342Y-77032451D01*
X69999995Y-77129812D02*
X69994914Y-77079402D01*
X69999995Y-77211289D02*
X69999995Y-77129812D01*
X69999995Y-77292765D02*
X69999995Y-77211289D01*
X69999995Y-77374242D02*
X69999995Y-77292765D01*
X69999995Y-77455718D02*
X69999995Y-77374242D01*
X69999995Y-77537195D02*
X69999995Y-77455718D01*
X69999995Y-77618671D02*
X69999995Y-77537195D01*
X69999995Y-77700148D02*
X69999995Y-77618671D01*
X69999995Y-77781624D02*
X69999995Y-77700148D01*
X69994914Y-77832035D02*
X69999995Y-77781624D01*
X69980342Y-77878986D02*
X69994914Y-77832035D01*
X69957284Y-77921472D02*
X69980342Y-77878986D01*
X69926744Y-77958487D02*
X69957284Y-77921472D01*
X69889729Y-77989027D02*
X69926744Y-77958487D01*
X69847243Y-78012085D02*
X69889729Y-77989027D01*
X69800292Y-78026658D02*
X69847243Y-78012085D01*
X69749881Y-78031738D02*
X69800292Y-78026658D01*
X69598862Y-78046994D02*
X69749881Y-78031738D01*
X69458141Y-78090741D02*
X69598862Y-78046994D01*
X69889729Y-76922410D02*
X69847243Y-76899352D01*
X69926744Y-76952950D02*
X69889729Y-76922410D01*
X69957284Y-76989965D02*
X69926744Y-76952950D01*
X69980342Y-77032451D02*
X69957284Y-76989965D01*
X69889729Y-75337337D02*
X69926744Y-75306797D01*
X69847243Y-75360395D02*
X69889729Y-75337337D01*
X69800292Y-75374968D02*
X69847243Y-75360395D01*
X69749881Y-75380048D02*
X69800292Y-75374968D01*
X69598862Y-75395304D02*
X69749881Y-75380048D01*
X69458141Y-75439046D02*
X69598862Y-75395304D01*
X69330751Y-75508238D02*
X69458141Y-75439046D01*
X69219724Y-75599845D02*
X69330751Y-75508238D01*
X69128092Y-75710831D02*
X69219724Y-75599845D01*
X69058887Y-75838160D02*
X69128092Y-75710831D01*
X69015140Y-75978795D02*
X69058887Y-75838160D01*
X68999884Y-76129701D02*
X69015140Y-75978795D01*
X69015140Y-76280721D02*
X68999884Y-76129701D01*
X69058887Y-76421442D02*
X69015140Y-76280721D01*
X69128092Y-76548831D02*
X69058887Y-76421442D01*
X69219724Y-76659858D02*
X69128092Y-76548831D01*
X69330751Y-76751490D02*
X69219724Y-76659858D01*
X69458141Y-76820696D02*
X69330751Y-76751490D01*
X69598862Y-76864442D02*
X69458141Y-76820696D01*
X69749881Y-76879698D02*
X69598862Y-76864442D01*
X69800292Y-76884779D02*
X69749881Y-76879698D01*
X69847243Y-76899352D02*
X69800292Y-76884779D01*
X69128092Y-73896881D02*
X69058887Y-73769552D01*
X69219724Y-74007867D02*
X69128092Y-73896881D01*
X69330751Y-74099474D02*
X69219724Y-74007867D01*
X69458141Y-74168667D02*
X69330751Y-74099474D01*
X69598862Y-74212409D02*
X69458141Y-74168667D01*
X69749881Y-74227664D02*
X69598862Y-74212409D01*
X69800292Y-74232745D02*
X69749881Y-74227664D01*
X69847243Y-74247317D02*
X69800292Y-74232745D01*
X69889729Y-74270376D02*
X69847243Y-74247317D01*
X69926744Y-74300915D02*
X69889729Y-74270376D01*
X69957284Y-74337931D02*
X69926744Y-74300915D01*
X69980342Y-74380416D02*
X69957284Y-74337931D01*
X69994914Y-74427367D02*
X69980342Y-74380416D01*
X69999995Y-74477778D02*
X69994914Y-74427367D01*
X69999995Y-74559297D02*
X69999995Y-74477778D01*
X69999995Y-74640817D02*
X69999995Y-74559297D01*
X69999995Y-74722337D02*
X69999995Y-74640817D01*
X69999995Y-74803856D02*
X69999995Y-74722337D01*
X69999995Y-74885376D02*
X69999995Y-74803856D01*
X69999995Y-74966895D02*
X69999995Y-74885376D01*
X69999995Y-75048415D02*
X69999995Y-74966895D01*
X69999995Y-75129934D02*
X69999995Y-75048415D01*
X69994914Y-75180345D02*
X69999995Y-75129934D01*
X69980342Y-75227296D02*
X69994914Y-75180345D01*
X69957284Y-75269782D02*
X69980342Y-75227296D01*
X69926744Y-75306797D02*
X69957284Y-75269782D01*
X69128092Y-73058881D02*
X69219724Y-72947854D01*
X69058887Y-73186271D02*
X69128092Y-73058881D01*
X69015140Y-73326992D02*
X69058887Y-73186271D01*
X68999884Y-73478011D02*
X69015140Y-73326992D01*
X69015140Y-73628917D02*
X68999884Y-73478011D01*
X69058887Y-73769552D02*
X69015140Y-73628917D01*
X69926744Y-72654763D02*
X69957284Y-72617747D01*
X69889729Y-72685302D02*
X69926744Y-72654763D01*
X69847243Y-72708361D02*
X69889729Y-72685302D01*
X69800292Y-72722933D02*
X69847243Y-72708361D01*
X69749881Y-72728014D02*
X69800292Y-72722933D01*
X69598862Y-72743270D02*
X69749881Y-72728014D01*
X69458141Y-72787017D02*
X69598862Y-72743270D01*
X69330751Y-72856222D02*
X69458141Y-72787017D01*
X69219724Y-72947854D02*
X69330751Y-72856222D01*
X69999995Y-72314947D02*
X69999995Y-72233470D01*
X69999995Y-72396423D02*
X69999995Y-72314947D01*
X69999995Y-72477900D02*
X69999995Y-72396423D01*
X69994914Y-72528311D02*
X69999995Y-72477900D01*
X69980342Y-72575262D02*
X69994914Y-72528311D01*
X69957284Y-72617747D02*
X69980342Y-72575262D01*
X69999995Y-71826088D02*
X69994914Y-71775677D01*
X69999995Y-71907564D02*
X69999995Y-71826088D01*
X69999995Y-71989041D02*
X69999995Y-71907564D01*
X69999995Y-72070517D02*
X69999995Y-71989041D01*
X69999995Y-72151994D02*
X69999995Y-72070517D01*
X69999995Y-72233470D02*
X69999995Y-72151994D01*
X69847243Y-71595627D02*
X69800292Y-71581055D01*
X69889729Y-71618686D02*
X69847243Y-71595627D01*
X69926744Y-71649225D02*
X69889729Y-71618686D01*
X69957284Y-71686241D02*
X69926744Y-71649225D01*
X69980342Y-71728726D02*
X69957284Y-71686241D01*
X69994914Y-71775677D02*
X69980342Y-71728726D01*
X69015140Y-70976996D02*
X68999884Y-70825977D01*
X69058887Y-71117717D02*
X69015140Y-70976996D01*
X69128092Y-71245107D02*
X69058887Y-71117717D01*
X69219724Y-71356134D02*
X69128092Y-71245107D01*
X69330751Y-71447766D02*
X69219724Y-71356134D01*
X69458141Y-71516971D02*
X69330751Y-71447766D01*
X69598862Y-71560718D02*
X69458141Y-71516971D01*
X69749881Y-71575974D02*
X69598862Y-71560718D01*
X69800292Y-71581055D02*
X69749881Y-71575974D01*
X69847243Y-68943593D02*
X69800292Y-68929020D01*
X69889729Y-68966651D02*
X69847243Y-68943593D01*
X69926744Y-68997191D02*
X69889729Y-68966651D01*
X69957284Y-69034206D02*
X69926744Y-68997191D01*
X69980342Y-69076692D02*
X69957284Y-69034206D01*
X69994914Y-69123643D02*
X69980342Y-69076692D01*
X69999995Y-69174053D02*
X69994914Y-69123643D01*
X69999995Y-69255530D02*
X69999995Y-69174053D01*
X69999995Y-69337006D02*
X69999995Y-69255530D01*
X69999995Y-69418483D02*
X69999995Y-69337006D01*
X69999995Y-69499959D02*
X69999995Y-69418483D01*
X69999995Y-69581436D02*
X69999995Y-69499959D01*
X69999995Y-69662912D02*
X69999995Y-69581436D01*
X69999995Y-69744389D02*
X69999995Y-69662912D01*
X69999995Y-69825865D02*
X69999995Y-69744389D01*
X69994914Y-69876276D02*
X69999995Y-69825865D01*
X69980342Y-69923227D02*
X69994914Y-69876276D01*
X69957284Y-69965713D02*
X69980342Y-69923227D01*
X69926744Y-70002728D02*
X69957284Y-69965713D01*
X69889729Y-70033268D02*
X69926744Y-70002728D01*
X69847243Y-70056326D02*
X69889729Y-70033268D01*
X69800292Y-70070899D02*
X69847243Y-70056326D01*
X69749881Y-70075979D02*
X69800292Y-70070899D01*
X69598862Y-70091235D02*
X69749881Y-70075979D01*
X69458141Y-70134982D02*
X69598862Y-70091235D01*
X69330751Y-70204187D02*
X69458141Y-70134982D01*
X69219724Y-70295820D02*
X69330751Y-70204187D01*
X69128092Y-70406847D02*
X69219724Y-70295820D01*
X69058887Y-70534236D02*
X69128092Y-70406847D01*
X69015140Y-70674957D02*
X69058887Y-70534236D01*
X68999884Y-70825977D02*
X69015140Y-70674957D01*
X69128092Y-68593072D02*
X69058887Y-68465683D01*
X69219724Y-68704099D02*
X69128092Y-68593072D01*
X69330751Y-68795731D02*
X69219724Y-68704099D01*
X69458141Y-68864937D02*
X69330751Y-68795731D01*
X69598862Y-68908683D02*
X69458141Y-68864937D01*
X69749881Y-68923939D02*
X69598862Y-68908683D01*
X69800292Y-68929020D02*
X69749881Y-68923939D01*
X69458141Y-67483287D02*
X69598862Y-67439545D01*
X69330751Y-67552479D02*
X69458141Y-67483287D01*
X69219724Y-67644086D02*
X69330751Y-67552479D01*
X69128092Y-67755072D02*
X69219724Y-67644086D01*
X69058887Y-67882401D02*
X69128092Y-67755072D01*
X69015140Y-68023036D02*
X69058887Y-67882401D01*
X68999884Y-68173942D02*
X69015140Y-68023036D01*
X69015140Y-68324962D02*
X68999884Y-68173942D01*
X69058887Y-68465683D02*
X69015140Y-68324962D01*
X69994914Y-67224586D02*
X69999995Y-67174175D01*
X69980342Y-67271537D02*
X69994914Y-67224586D01*
X69957284Y-67314023D02*
X69980342Y-67271537D01*
X69926744Y-67351038D02*
X69957284Y-67314023D01*
X69889729Y-67381578D02*
X69926744Y-67351038D01*
X69847243Y-67404636D02*
X69889729Y-67381578D01*
X69800292Y-67419209D02*
X69847243Y-67404636D01*
X69749881Y-67424289D02*
X69800292Y-67419209D01*
X69598862Y-67439545D02*
X69749881Y-67424289D01*
X69926744Y-66345156D02*
X69889729Y-66314617D01*
X69957284Y-66382172D02*
X69926744Y-66345156D01*
X69980342Y-66424657D02*
X69957284Y-66382172D01*
X69994914Y-66471608D02*
X69980342Y-66424657D01*
X69999995Y-66522019D02*
X69994914Y-66471608D01*
X69999995Y-66603538D02*
X69999995Y-66522019D01*
X69999995Y-66685058D02*
X69999995Y-66603538D01*
X69999995Y-66766578D02*
X69999995Y-66685058D01*
X69999995Y-66848097D02*
X69999995Y-66766578D01*
X69999995Y-66929617D02*
X69999995Y-66848097D01*
X69999995Y-67011136D02*
X69999995Y-66929617D01*
X69999995Y-67092656D02*
X69999995Y-67011136D01*
X69999995Y-67174175D02*
X69999995Y-67092656D01*
X69219724Y-66052108D02*
X69128092Y-65941122D01*
X69330751Y-66143715D02*
X69219724Y-66052108D01*
X69458141Y-66212908D02*
X69330751Y-66143715D01*
X69598862Y-66256650D02*
X69458141Y-66212908D01*
X69749881Y-66271905D02*
X69598862Y-66256650D01*
X69800292Y-66276986D02*
X69749881Y-66271905D01*
X69847243Y-66291558D02*
X69800292Y-66276986D01*
X69889729Y-66314617D02*
X69847243Y-66291558D01*
X69847243Y-62100422D02*
X69889729Y-62077391D01*
X69800292Y-62114975D02*
X69847243Y-62100422D01*
X69749881Y-62120048D02*
X69800292Y-62114975D01*
X69598862Y-62135319D02*
X69749881Y-62120048D01*
X69458141Y-62179102D02*
X69598862Y-62135319D01*
X69330751Y-62248356D02*
X69458141Y-62179102D01*
X69219724Y-62340039D02*
X69330751Y-62248356D01*
X69128092Y-62451109D02*
X69219724Y-62340039D01*
X69058887Y-62578523D02*
X69128092Y-62451109D01*
X69015140Y-62719240D02*
X69058887Y-62578523D01*
X68999884Y-62870218D02*
X69015140Y-62719240D01*
X69015140Y-63021188D02*
X68999884Y-62870218D01*
X69058887Y-63161885D02*
X69015140Y-63021188D01*
X69128092Y-63289272D02*
X69058887Y-63161885D01*
X69219724Y-63400310D02*
X69128092Y-63289272D01*
X69330751Y-63491962D02*
X69219724Y-63400310D01*
X69458141Y-63561188D02*
X69330751Y-63491962D01*
X69598862Y-63604952D02*
X69458141Y-63561188D01*
X69749881Y-63620215D02*
X69598862Y-63604952D01*
X69800292Y-63625288D02*
X69749881Y-63620215D01*
X69847243Y-63639841D02*
X69800292Y-63625288D01*
X69889729Y-63662872D02*
X69847243Y-63639841D01*
X69926744Y-63693380D02*
X69889729Y-63662872D01*
X69957284Y-63730364D02*
X69926744Y-63693380D01*
X69980342Y-63772822D02*
X69957284Y-63730364D01*
X69994914Y-63819753D02*
X69980342Y-63772822D01*
X69999995Y-63870157D02*
X69994914Y-63819753D01*
X69999995Y-63951655D02*
X69999995Y-63870157D01*
X69999995Y-64033153D02*
X69999995Y-63951655D01*
X69999995Y-64114651D02*
X69999995Y-64033153D01*
X69999995Y-64196149D02*
X69999995Y-64114651D01*
X69999995Y-64277647D02*
X69999995Y-64196149D01*
X69999995Y-64359145D02*
X69999995Y-64277647D01*
X69999995Y-64440643D02*
X69999995Y-64359145D01*
X69999995Y-64522141D02*
X69999995Y-64440643D01*
X69994914Y-64572544D02*
X69999995Y-64522141D01*
X69980342Y-64619476D02*
X69994914Y-64572544D01*
X69957284Y-64661934D02*
X69980342Y-64619476D01*
X69926744Y-64698917D02*
X69957284Y-64661934D01*
X69889729Y-64729425D02*
X69926744Y-64698917D01*
X69847243Y-64752456D02*
X69889729Y-64729425D01*
X69800292Y-64767009D02*
X69847243Y-64752456D01*
X69749881Y-64772083D02*
X69800292Y-64767009D01*
X69598862Y-64787353D02*
X69749881Y-64772083D01*
X69458141Y-64831136D02*
X69598862Y-64787353D01*
X69330751Y-64900391D02*
X69458141Y-64831136D01*
X69219724Y-64992074D02*
X69330751Y-64900391D01*
X69128092Y-65103143D02*
X69219724Y-64992074D01*
X69058887Y-65230558D02*
X69128092Y-65103143D01*
X69015140Y-65371275D02*
X69058887Y-65230558D01*
X68999884Y-65522252D02*
X69015140Y-65371275D01*
X69015140Y-65673158D02*
X68999884Y-65522252D01*
X69058887Y-65813793D02*
X69015140Y-65673158D01*
X69128092Y-65941122D02*
X69058887Y-65813793D01*
X69980342Y-58468925D02*
X69957284Y-58426467D01*
X69994914Y-58515857D02*
X69980342Y-58468925D01*
X69999995Y-58566260D02*
X69994914Y-58515857D01*
X69999995Y-58647758D02*
X69999995Y-58566260D01*
X69999995Y-58729256D02*
X69999995Y-58647758D01*
X69999995Y-58810754D02*
X69999995Y-58729256D01*
X69999995Y-58892252D02*
X69999995Y-58810754D01*
X69999995Y-58973750D02*
X69999995Y-58892252D01*
X69999995Y-59055248D02*
X69999995Y-58973750D01*
X69999995Y-59136746D02*
X69999995Y-59055248D01*
X69999995Y-59218244D02*
X69999995Y-59136746D01*
X69994914Y-59268648D02*
X69999995Y-59218244D01*
X69980342Y-59315579D02*
X69994914Y-59268648D01*
X69957284Y-59358037D02*
X69980342Y-59315579D01*
X69926744Y-59395021D02*
X69957284Y-59358037D01*
X69889729Y-59425529D02*
X69926744Y-59395021D01*
X69847243Y-59448560D02*
X69889729Y-59425529D01*
X69800292Y-59463112D02*
X69847243Y-59448560D01*
X69749881Y-59468186D02*
X69800292Y-59463112D01*
X69598862Y-59483449D02*
X69749881Y-59468186D01*
X69458141Y-59527213D02*
X69598862Y-59483449D01*
X69330751Y-59596439D02*
X69458141Y-59527213D01*
X69219724Y-59688091D02*
X69330751Y-59596439D01*
X69128092Y-59799129D02*
X69219724Y-59688091D01*
X69058887Y-59926515D02*
X69128092Y-59799129D01*
X69015140Y-60067213D02*
X69058887Y-59926515D01*
X68999884Y-60218183D02*
X69015140Y-60067213D01*
X69015140Y-60369161D02*
X68999884Y-60218183D01*
X69058887Y-60509878D02*
X69015140Y-60369161D01*
X69128092Y-60637292D02*
X69058887Y-60509878D01*
X69219724Y-60748362D02*
X69128092Y-60637292D01*
X69330751Y-60840045D02*
X69219724Y-60748362D01*
X69458141Y-60909299D02*
X69330751Y-60840045D01*
X69598862Y-60953082D02*
X69458141Y-60909299D01*
X69749881Y-60968353D02*
X69598862Y-60953082D01*
X69800292Y-60973426D02*
X69749881Y-60968353D01*
X69847243Y-60987979D02*
X69800292Y-60973426D01*
X69889729Y-61011010D02*
X69847243Y-60987979D01*
X69926744Y-61041518D02*
X69889729Y-61011010D01*
X69957284Y-61078502D02*
X69926744Y-61041518D01*
X69980342Y-61120960D02*
X69957284Y-61078502D01*
X69994914Y-61167891D02*
X69980342Y-61120960D01*
X69999995Y-61218294D02*
X69994914Y-61167891D01*
X69999995Y-61299771D02*
X69999995Y-61218294D01*
X69999995Y-61381247D02*
X69999995Y-61299771D01*
X69999995Y-61462724D02*
X69999995Y-61381247D01*
X69999995Y-61544200D02*
X69999995Y-61462724D01*
X69999995Y-61625677D02*
X69999995Y-61544200D01*
X69999995Y-61707153D02*
X69999995Y-61625677D01*
X69999995Y-61788630D02*
X69999995Y-61707153D01*
X69999995Y-61870106D02*
X69999995Y-61788630D01*
X69994914Y-61920510D02*
X69999995Y-61870106D01*
X69980342Y-61967441D02*
X69994914Y-61920510D01*
X69957284Y-62009899D02*
X69980342Y-61967441D01*
X69926744Y-62046883D02*
X69957284Y-62009899D01*
X69889729Y-62077391D02*
X69926744Y-62046883D01*
X69458141Y-58257291D02*
X69330751Y-58188065D01*
X69598862Y-58301055D02*
X69458141Y-58257291D01*
X69749881Y-58316318D02*
X69598862Y-58301055D01*
X69800292Y-58321392D02*
X69749881Y-58316318D01*
X69847243Y-58335944D02*
X69800292Y-58321392D01*
X69889729Y-58358975D02*
X69847243Y-58335944D01*
X69926744Y-58389483D02*
X69889729Y-58358975D01*
X69957284Y-58426467D02*
X69926744Y-58389483D01*
X69749881Y-56816324D02*
X69749881Y-56816324D01*
X69598862Y-56831587D02*
X69749881Y-56816324D01*
X69458141Y-56875351D02*
X69598862Y-56831587D01*
X69330751Y-56944577D02*
X69458141Y-56875351D01*
X69219724Y-57036228D02*
X69330751Y-56944577D01*
X69128092Y-57147266D02*
X69219724Y-57036228D01*
X69058887Y-57274653D02*
X69128092Y-57147266D01*
X69015140Y-57415351D02*
X69058887Y-57274653D01*
X68999884Y-57566321D02*
X69015140Y-57415351D01*
X69015140Y-57717291D02*
X68999884Y-57566321D01*
X69058887Y-57857989D02*
X69015140Y-57717291D01*
X69128092Y-57985375D02*
X69058887Y-57857989D01*
X69219724Y-58096413D02*
X69128092Y-57985375D01*
X69330751Y-58188065D02*
X69219724Y-58096413D01*
X3986445Y-86571838D02*
X4087863Y-86384988D01*
X3922351Y-86778320D02*
X3986445Y-86571838D01*
X3900003Y-87000011D02*
X3922351Y-86778320D01*
X3922351Y-87221695D02*
X3900003Y-87000011D01*
X3986445Y-87428174D02*
X3922351Y-87221695D01*
X4087863Y-87615025D02*
X3986445Y-87428174D01*
X4222182Y-87777822D02*
X4087863Y-87615025D01*
X4384978Y-87912143D02*
X4222182Y-87777822D01*
X4571828Y-88013563D02*
X4384978Y-87912143D01*
X4778310Y-88077660D02*
X4571828Y-88013563D01*
X5000001Y-88100008D02*
X4778310Y-88077660D01*
X5428164Y-85986455D02*
X5615014Y-86087873D01*
X5221685Y-85922361D02*
X5428164Y-85986455D01*
X5000001Y-85900014D02*
X5221685Y-85922361D01*
X4778310Y-85922361D02*
X5000001Y-85900014D01*
X4571828Y-85986455D02*
X4778310Y-85922361D01*
X4384978Y-86087873D02*
X4571828Y-85986455D01*
X4222182Y-86222192D02*
X4384978Y-86087873D01*
X4087863Y-86384988D02*
X4222182Y-86222192D01*
X5912133Y-86384988D02*
X6013553Y-86571838D01*
X5777812Y-86222192D02*
X5912133Y-86384988D01*
X5615014Y-86087873D02*
X5777812Y-86222192D01*
X5912133Y-87615025D02*
X5777812Y-87777822D01*
X6013553Y-87428174D02*
X5912133Y-87615025D01*
X6077650Y-87221695D02*
X6013553Y-87428174D01*
X6099998Y-87000011D02*
X6077650Y-87221695D01*
X6077650Y-86778320D02*
X6099998Y-87000011D01*
X6013553Y-86571838D02*
X6077650Y-86778320D01*
X5000001Y-88100008D02*
X5000001Y-88100008D01*
X5221685Y-88077660D02*
X5000001Y-88100008D01*
X5428164Y-88013563D02*
X5221685Y-88077660D01*
X5615014Y-87912143D02*
X5428164Y-88013563D01*
X5777812Y-87777822D02*
X5615014Y-87912143D01*
X4087863Y-52615029D02*
X3986445Y-52428179D01*
X4222182Y-52777827D02*
X4087863Y-52615029D01*
X4384978Y-52912147D02*
X4222182Y-52777827D01*
X4571828Y-53013568D02*
X4384978Y-52912147D01*
X4778310Y-53077664D02*
X4571828Y-53013568D01*
X5000001Y-53100013D02*
X4778310Y-53077664D01*
X3900003Y-52000016D02*
X3922351Y-51778324D01*
X3922351Y-52221700D02*
X3900003Y-52000016D01*
X3986445Y-52428179D02*
X3922351Y-52221700D01*
X4222182Y-51222186D02*
X4384978Y-51087863D01*
X4087863Y-51384986D02*
X4222182Y-51222186D01*
X3986445Y-51571840D02*
X4087863Y-51384986D01*
X3922351Y-51778324D02*
X3986445Y-51571840D01*
X6077650Y-51778324D02*
X6099998Y-52000016D01*
X6013553Y-51571840D02*
X6077650Y-51778324D01*
X5912133Y-51384986D02*
X6013553Y-51571840D01*
X5777812Y-51222186D02*
X5912133Y-51384986D01*
X5615014Y-51087863D02*
X5777812Y-51222186D01*
X5428164Y-50986442D02*
X5615014Y-51087863D01*
X5221685Y-50922345D02*
X5428164Y-50986442D01*
X5000001Y-50899997D02*
X5221685Y-50922345D01*
X4778310Y-50922345D02*
X5000001Y-50899997D01*
X4571828Y-50986442D02*
X4778310Y-50922345D01*
X4384978Y-51087863D02*
X4571828Y-50986442D01*
X6013553Y-52428179D02*
X5912133Y-52615029D01*
X6077650Y-52221700D02*
X6013553Y-52428179D01*
X6099998Y-52000016D02*
X6077650Y-52221700D01*
X5615014Y-52912147D02*
X5428164Y-53013568D01*
X5777812Y-52777827D02*
X5615014Y-52912147D01*
X5912133Y-52615029D02*
X5777812Y-52777827D01*
X5000001Y-53100013D02*
X5000001Y-53100013D01*
X5221685Y-53077664D02*
X5000001Y-53100013D01*
X5428164Y-53013568D02*
X5221685Y-53077664D01*
X7725890Y-40831145D02*
X7725890Y-40831145D01*
X8203942Y-40684637D02*
X7725890Y-40831145D01*
X8681995Y-40538129D02*
X8203942Y-40684637D01*
X9160048Y-40391621D02*
X8681995Y-40538129D01*
X9638101Y-40245113D02*
X9160048Y-40391621D01*
X10116153Y-40098605D02*
X9638101Y-40245113D01*
X10594206Y-39952097D02*
X10116153Y-40098605D01*
X11072259Y-39805589D02*
X10594206Y-39952097D01*
X11550312Y-39659081D02*
X11072259Y-39805589D01*
X11212453Y-38561274D02*
X11550312Y-39659081D01*
X10874594Y-37463467D02*
X11212453Y-38561274D01*
X10536735Y-36365661D02*
X10874594Y-37463467D01*
X10198876Y-35267854D02*
X10536735Y-36365661D01*
X9861017Y-34170048D02*
X10198876Y-35267854D01*
X9523158Y-33072241D02*
X9861017Y-34170048D01*
X9185299Y-31974434D02*
X9523158Y-33072241D01*
X8847440Y-30876628D02*
X9185299Y-31974434D01*
X8690048Y-30503348D02*
X8847440Y-30876628D01*
X8468243Y-30178820D02*
X8690048Y-30503348D01*
X8192078Y-29908364D02*
X8468243Y-30178820D01*
X7871604Y-29697302D02*
X8192078Y-29908364D01*
X7516873Y-29550954D02*
X7871604Y-29697302D01*
X7137937Y-29474642D02*
X7516873Y-29550954D01*
X6744848Y-29473687D02*
X7137937Y-29474642D01*
X6347658Y-29553410D02*
X6744848Y-29473687D01*
X5974371Y-29710803D02*
X6347658Y-29553410D01*
X5649837Y-29932610D02*
X5974371Y-29710803D01*
X5379377Y-30208779D02*
X5649837Y-29932610D01*
X5168313Y-30529257D02*
X5379377Y-30208779D01*
X5021963Y-30883992D02*
X5168313Y-30529257D01*
X4945651Y-31262932D02*
X5021963Y-30883992D01*
X4944695Y-31656023D02*
X4945651Y-31262932D01*
X5024418Y-32053214D02*
X4944695Y-31656023D01*
X5362102Y-33150456D02*
X5024418Y-32053214D01*
X5699786Y-34247697D02*
X5362102Y-33150456D01*
X6037470Y-35344938D02*
X5699786Y-34247697D01*
X6375154Y-36442180D02*
X6037470Y-35344938D01*
X6712838Y-37539421D02*
X6375154Y-36442180D01*
X7050522Y-38636662D02*
X6712838Y-37539421D01*
X7388206Y-39733904D02*
X7050522Y-38636662D01*
X7725890Y-40831145D02*
X7388206Y-39733904D01*
X23000000Y-128100000D02*
X22778310Y-128077652D01*
M02*
