M48
;DRILL file {KiCad (5.0.0-rc2-dev-222-g3b0a758)} date Thursday, 05 July 2018 at 12:59:28
;FORMAT={-:-/ absolute / inch / decimal}
FMAT,2
INCH,TZ
T1C0.0118
T2C0.0200
T3C0.0256
T4C0.0314
T5C0.0394
T6C0.0709
%
G90
G05
M72
T1
X0.2585Y-1.9303
X0.576Y-4.0724
X0.6132Y-3.2913
X0.6303Y-4.1661
X0.6307Y-4.7748
X0.6435Y-2.7969
X0.6441Y-2.4976
X0.7313Y-3.5364
X0.7791Y-2.1343
X0.8886Y-1.4299
X0.9779Y-2.4577
X0.9803Y-2.1146
X0.9823Y-2.2465
X0.9878Y-1.428
X0.997Y-2.2736
X1.0775Y-3.2909
X1.1245Y-2.2451
X1.1585Y-2.2972
X1.1594Y-2.1165
X1.1607Y-1.5205
X1.1613Y-2.2311
X1.1655Y-2.7649
X1.1715Y-2.5729
X1.1781Y-2.0187
X1.2008Y-3.5374
X1.2087Y-2.7283
X1.2197Y-1.5217
X1.2441Y-2.0187
X1.2455Y-2.6169
X1.2463Y-2.0843
X1.2595Y-2.6609
X1.2615Y-2.0589
X1.2819Y-1.5217
X1.3366Y-2.3776
X1.3386Y-2.4311
X1.3409Y-1.5205
X1.3439Y-2.1927
X1.3632Y-2.248
X1.3975Y-2.8009
X1.4009Y-1.5195
X1.4098Y-2.2476
X1.4135Y-2.8349
X1.4262Y-2.2047
X1.4363Y-2.6214
X1.4795Y-2.8569
X1.4909Y-2.6675
X1.4988Y-2.6132
X1.5453Y-3.2904
X1.5837Y-2.0108
X1.5955Y-2.6569
X1.6043Y-1.9579
X1.6045Y-2.4929
X1.6175Y-2.6809
X1.6275Y-2.4709
X1.6594Y-2.3921
X1.6722Y-3.5374
X1.7461Y-2.3375
X1.8305Y-1.5183
X1.8915Y-1.5195
X1.9083Y-1.7965
X1.9153Y-1.6539
X1.9505Y-1.5205
X2.0041Y-1.5195
X2.0167Y-3.2913
X2.0555Y-1.5197
X2.0768Y-1.5409
X2.1024Y-1.5409
X2.1025Y-2.0061
X2.1083Y-1.861
X2.1307Y-1.5413
X2.1467Y-3.5374
X2.1594Y-1.5409
X2.1878Y-1.5657
X2.1878Y-1.5906
X2.1882Y-1.5406
X2.2217Y-2.1756
X2.2264Y-4.0161
X2.2319Y-1.5402
X2.2394Y-3.3488
X2.2673Y-1.5398
X2.2726Y-1.6752
X2.3012Y-2.0638
X2.3012Y-3.9732
X2.3016Y-1.5402
X2.3035Y-2.1071
X2.3051Y-3.8976
X2.3201Y-2.1382
X2.3217Y-3.9925
X2.3252Y-1.5764
X2.3343Y-2.1677
X2.3358Y-1.5402
X2.3425Y-1.6374
X2.3496Y-2.1969
X2.363Y-1.5772
X2.3717Y-1.5402
X2.3812Y-4.0574
X2.3839Y-2.1071
X2.3984Y-2.137
X2.4118Y-4.3201
X2.412Y-2.168
X2.4195Y-1.6889
X2.4236Y-2.1969
X2.4252Y-1.5402
X2.5257Y-1.6409
X2.5476Y-1.9126
X2.548Y-1.8815
X2.5602Y-1.5406
X2.5606Y-1.5685
X2.5677Y-1.5996
X2.5839Y-1.7346
X2.587Y-1.8539
X2.5894Y-1.6205
X2.6114Y-1.6429
X2.6126Y-1.8283
X2.613Y-1.7209
X2.6343Y-1.6661
X2.6511Y-1.9497
X2.6511Y-2.0131
X2.6521Y-1.8815
X2.6531Y-1.7565
X2.6531Y-1.8189
X2.6539Y-1.6874
T3
X1.0827Y-2.6969
X1.0827Y-4.7835
X1.6732Y-2.6969
X1.6732Y-4.7835
T4
X1.5188Y-1.6625
X1.7096Y-1.6625
T5
X1.2303Y-1.8189
X1.3303Y-1.8189
X1.4303Y-1.8189
X1.5303Y-1.8189
X0.4315Y-4.8189
X0.4315Y-4.9189
X0.5315Y-4.8189
X0.5315Y-4.9189
X0.4315Y-4.1189
X0.4315Y-4.2189
X0.5315Y-4.1189
X0.5315Y-4.2189
X0.2315Y-3.6189
X0.2315Y-3.7189
X0.2315Y-3.8189
X0.2315Y-3.9189
X2.2315Y-4.4189
X2.2315Y-4.5189
X2.2315Y-4.6189
X2.2315Y-4.7189
X2.2315Y-4.8189
X2.2315Y-4.9189
X2.3315Y-4.4189
X2.3315Y-4.5189
X2.3315Y-4.6189
X2.3315Y-4.7189
X2.3315Y-4.8189
X2.3315Y-4.9189
X2.2315Y-4.1189
X2.2315Y-4.2189
X2.3315Y-4.1189
X2.3315Y-4.2189
X0.9287Y-1.5159
X0.9546Y-1.6125
X1.0253Y-1.49
X1.0512Y-1.5866
X2.5315Y-3.6189
X2.5315Y-3.7189
X2.5315Y-3.8189
X2.5315Y-3.9189
X0.4315Y-4.4189
X0.4315Y-4.5189
X0.4315Y-4.6189
X0.5315Y-4.4189
X0.5315Y-4.5189
X0.5315Y-4.6189
T6
X0.9899Y-1.5513
X0.4815Y-4.1689
X2.2815Y-4.1689
X0.4815Y-4.8689
T2
X1.4715Y-1.5354G85X1.4715Y-1.5748
G05
X1.7569Y-1.5354G85X1.7569Y-1.5748
G05
T0
M30
