G04 #@! TF.GenerationSoftware,KiCad,Pcbnew,(5.0.0-rc2-dev-222-g3b0a758)*
G04 #@! TF.CreationDate,2018-07-05T12:59:24+02:00*
G04 #@! TF.ProjectId,bornhack_scale_it,626F726E6861636B5F7363616C655F69,rev?*
G04 #@! TF.SameCoordinates,PX2faf080PY1c9c380*
G04 #@! TF.FileFunction,Soldermask,Top*
G04 #@! TF.FilePolarity,Negative*
%FSLAX46Y46*%
G04 Gerber Fmt 4.6, Leading zero omitted, Abs format (unit mm)*
G04 Created by KiCad (PCBNEW (5.0.0-rc2-dev-222-g3b0a758)) date Thursday, 05 July 2018 at 12:59:24*
%MOMM*%
%LPD*%
G01*
G04 APERTURE LIST*
%ADD10C,0.010000*%
%ADD11C,1.600000*%
%ADD12O,2.100000X2.100000*%
%ADD13R,2.100000X2.100000*%
%ADD14O,0.648920X1.197560*%
%ADD15O,1.197560X0.648920*%
%ADD16O,4.999940X4.999940*%
%ADD17C,2.100000*%
%ADD18R,2.686000X1.416000*%
%ADD19R,0.798780X1.748740*%
%ADD20C,2.299920*%
%ADD21O,1.416000X2.432000*%
%ADD22C,1.705560*%
%ADD23C,0.897840*%
%ADD24C,1.802000*%
%ADD25C,1.750000*%
%ADD26C,1.750000*%
%ADD27O,1.750000X1.750000*%
%ADD28R,2.940000X1.670000*%
%ADD29R,1.289000X1.289000*%
%ADD30C,0.650000*%
%ADD31C,0.100000*%
%ADD32R,2.432000X2.178000*%
%ADD33R,1.162000X1.289000*%
%ADD34R,1.543000X1.416000*%
G04 APERTURE END LIST*
D10*
G36*
X7560821Y-26516993D02*
X8172487Y-26634888D01*
X8761026Y-26825721D01*
X9319468Y-27084864D01*
X9840840Y-27407686D01*
X10318171Y-27789560D01*
X10744492Y-28225854D01*
X11112829Y-28711941D01*
X11416212Y-29243191D01*
X11548272Y-29541446D01*
X11576207Y-29620516D01*
X11627376Y-29775480D01*
X11700196Y-30001282D01*
X11793085Y-30292868D01*
X11904462Y-30645183D01*
X12032744Y-31053172D01*
X12176351Y-31511780D01*
X12333699Y-32015952D01*
X12503208Y-32560634D01*
X12683295Y-33140770D01*
X12872379Y-33751305D01*
X13068877Y-34387185D01*
X13271208Y-35043355D01*
X13345873Y-35285851D01*
X13586419Y-36066618D01*
X13803565Y-36770468D01*
X13998278Y-37401573D01*
X14171522Y-37964100D01*
X14324265Y-38462219D01*
X14457473Y-38900099D01*
X14572112Y-39281910D01*
X14669148Y-39611820D01*
X14749547Y-39894000D01*
X14814276Y-40132616D01*
X14864301Y-40331841D01*
X14900588Y-40495841D01*
X14924103Y-40628787D01*
X14935813Y-40734847D01*
X14936683Y-40818191D01*
X14927680Y-40882988D01*
X14909771Y-40933408D01*
X14883920Y-40973618D01*
X14851096Y-41007789D01*
X14812262Y-41040090D01*
X14768387Y-41074690D01*
X14720436Y-41115758D01*
X14701204Y-41134067D01*
X14420039Y-41356847D01*
X14082237Y-41535687D01*
X13706020Y-41666208D01*
X13309610Y-41744027D01*
X12911228Y-41764762D01*
X12529096Y-41724032D01*
X12387783Y-41690367D01*
X12245863Y-41645072D01*
X12163880Y-41599117D01*
X12118567Y-41536182D01*
X12101120Y-41489284D01*
X12083692Y-41433177D01*
X12042867Y-41301035D01*
X11980147Y-41097742D01*
X11897040Y-40828185D01*
X11795048Y-40497250D01*
X11675679Y-40109820D01*
X11540435Y-39670783D01*
X11390823Y-39185024D01*
X11228348Y-38657429D01*
X11054513Y-38092882D01*
X10870825Y-37496271D01*
X10678789Y-36872479D01*
X10479908Y-36226394D01*
X10423766Y-36044000D01*
X10222338Y-35390754D01*
X10026344Y-34757393D01*
X9837360Y-34148902D01*
X9656964Y-33570266D01*
X9486733Y-33026471D01*
X9328245Y-32522504D01*
X9183077Y-32063348D01*
X9052807Y-31653991D01*
X8939012Y-31299417D01*
X8843270Y-31004613D01*
X8767158Y-30774564D01*
X8712253Y-30614255D01*
X8680133Y-30528673D01*
X8675828Y-30519500D01*
X8509522Y-30272473D01*
X8286193Y-30033291D01*
X8031771Y-29826740D01*
X7816831Y-29698461D01*
X7446229Y-29559094D01*
X7072788Y-29497389D01*
X6704795Y-29507780D01*
X6350537Y-29584697D01*
X6018299Y-29722572D01*
X5716369Y-29915837D01*
X5453031Y-30158923D01*
X5236573Y-30446262D01*
X5075281Y-30772287D01*
X4977441Y-31131428D01*
X4951338Y-31518117D01*
X4957134Y-31620166D01*
X4967013Y-31685318D01*
X4989526Y-31788285D01*
X5025637Y-31932317D01*
X5076307Y-32120661D01*
X5142501Y-32356565D01*
X5225179Y-32643279D01*
X5325306Y-32984048D01*
X5443844Y-33382123D01*
X5581755Y-33840751D01*
X5740003Y-34363180D01*
X5919550Y-34952659D01*
X6121358Y-35612435D01*
X6346391Y-36345757D01*
X6595611Y-37155872D01*
X6655458Y-37350169D01*
X8329471Y-42783839D01*
X8244821Y-42902719D01*
X8012904Y-43160933D01*
X7717211Y-43384603D01*
X7373740Y-43567544D01*
X6998490Y-43703571D01*
X6607460Y-43786500D01*
X6216650Y-43810145D01*
X5953698Y-43788398D01*
X5791656Y-43757769D01*
X5641027Y-43718679D01*
X5576879Y-43696494D01*
X5438528Y-43640041D01*
X3750645Y-38159270D01*
X3545856Y-37493180D01*
X3347263Y-36845071D01*
X3156385Y-36220004D01*
X2974739Y-35623040D01*
X2803844Y-35059237D01*
X2645215Y-34533655D01*
X2500373Y-34051354D01*
X2370833Y-33617395D01*
X2258115Y-33236837D01*
X2163735Y-32914739D01*
X2089211Y-32656162D01*
X2036062Y-32466166D01*
X2005804Y-32349809D01*
X2000215Y-32323704D01*
X1973839Y-32127381D01*
X1952958Y-31883072D01*
X1940260Y-31627414D01*
X1937667Y-31471131D01*
X1978043Y-30832192D01*
X2095884Y-30217656D01*
X2286254Y-29632456D01*
X2544220Y-29081525D01*
X2864849Y-28569795D01*
X3243206Y-28102200D01*
X3674357Y-27683672D01*
X4153368Y-27319146D01*
X4675307Y-27013553D01*
X5235238Y-26771827D01*
X5828228Y-26598900D01*
X6449342Y-26499707D01*
X6933000Y-26476666D01*
X7560821Y-26516993D01*
X7560821Y-26516993D01*
G37*
X7560821Y-26516993D02*
X8172487Y-26634888D01*
X8761026Y-26825721D01*
X9319468Y-27084864D01*
X9840840Y-27407686D01*
X10318171Y-27789560D01*
X10744492Y-28225854D01*
X11112829Y-28711941D01*
X11416212Y-29243191D01*
X11548272Y-29541446D01*
X11576207Y-29620516D01*
X11627376Y-29775480D01*
X11700196Y-30001282D01*
X11793085Y-30292868D01*
X11904462Y-30645183D01*
X12032744Y-31053172D01*
X12176351Y-31511780D01*
X12333699Y-32015952D01*
X12503208Y-32560634D01*
X12683295Y-33140770D01*
X12872379Y-33751305D01*
X13068877Y-34387185D01*
X13271208Y-35043355D01*
X13345873Y-35285851D01*
X13586419Y-36066618D01*
X13803565Y-36770468D01*
X13998278Y-37401573D01*
X14171522Y-37964100D01*
X14324265Y-38462219D01*
X14457473Y-38900099D01*
X14572112Y-39281910D01*
X14669148Y-39611820D01*
X14749547Y-39894000D01*
X14814276Y-40132616D01*
X14864301Y-40331841D01*
X14900588Y-40495841D01*
X14924103Y-40628787D01*
X14935813Y-40734847D01*
X14936683Y-40818191D01*
X14927680Y-40882988D01*
X14909771Y-40933408D01*
X14883920Y-40973618D01*
X14851096Y-41007789D01*
X14812262Y-41040090D01*
X14768387Y-41074690D01*
X14720436Y-41115758D01*
X14701204Y-41134067D01*
X14420039Y-41356847D01*
X14082237Y-41535687D01*
X13706020Y-41666208D01*
X13309610Y-41744027D01*
X12911228Y-41764762D01*
X12529096Y-41724032D01*
X12387783Y-41690367D01*
X12245863Y-41645072D01*
X12163880Y-41599117D01*
X12118567Y-41536182D01*
X12101120Y-41489284D01*
X12083692Y-41433177D01*
X12042867Y-41301035D01*
X11980147Y-41097742D01*
X11897040Y-40828185D01*
X11795048Y-40497250D01*
X11675679Y-40109820D01*
X11540435Y-39670783D01*
X11390823Y-39185024D01*
X11228348Y-38657429D01*
X11054513Y-38092882D01*
X10870825Y-37496271D01*
X10678789Y-36872479D01*
X10479908Y-36226394D01*
X10423766Y-36044000D01*
X10222338Y-35390754D01*
X10026344Y-34757393D01*
X9837360Y-34148902D01*
X9656964Y-33570266D01*
X9486733Y-33026471D01*
X9328245Y-32522504D01*
X9183077Y-32063348D01*
X9052807Y-31653991D01*
X8939012Y-31299417D01*
X8843270Y-31004613D01*
X8767158Y-30774564D01*
X8712253Y-30614255D01*
X8680133Y-30528673D01*
X8675828Y-30519500D01*
X8509522Y-30272473D01*
X8286193Y-30033291D01*
X8031771Y-29826740D01*
X7816831Y-29698461D01*
X7446229Y-29559094D01*
X7072788Y-29497389D01*
X6704795Y-29507780D01*
X6350537Y-29584697D01*
X6018299Y-29722572D01*
X5716369Y-29915837D01*
X5453031Y-30158923D01*
X5236573Y-30446262D01*
X5075281Y-30772287D01*
X4977441Y-31131428D01*
X4951338Y-31518117D01*
X4957134Y-31620166D01*
X4967013Y-31685318D01*
X4989526Y-31788285D01*
X5025637Y-31932317D01*
X5076307Y-32120661D01*
X5142501Y-32356565D01*
X5225179Y-32643279D01*
X5325306Y-32984048D01*
X5443844Y-33382123D01*
X5581755Y-33840751D01*
X5740003Y-34363180D01*
X5919550Y-34952659D01*
X6121358Y-35612435D01*
X6346391Y-36345757D01*
X6595611Y-37155872D01*
X6655458Y-37350169D01*
X8329471Y-42783839D01*
X8244821Y-42902719D01*
X8012904Y-43160933D01*
X7717211Y-43384603D01*
X7373740Y-43567544D01*
X6998490Y-43703571D01*
X6607460Y-43786500D01*
X6216650Y-43810145D01*
X5953698Y-43788398D01*
X5791656Y-43757769D01*
X5641027Y-43718679D01*
X5576879Y-43696494D01*
X5438528Y-43640041D01*
X3750645Y-38159270D01*
X3545856Y-37493180D01*
X3347263Y-36845071D01*
X3156385Y-36220004D01*
X2974739Y-35623040D01*
X2803844Y-35059237D01*
X2645215Y-34533655D01*
X2500373Y-34051354D01*
X2370833Y-33617395D01*
X2258115Y-33236837D01*
X2163735Y-32914739D01*
X2089211Y-32656162D01*
X2036062Y-32466166D01*
X2005804Y-32349809D01*
X2000215Y-32323704D01*
X1973839Y-32127381D01*
X1952958Y-31883072D01*
X1940260Y-31627414D01*
X1937667Y-31471131D01*
X1978043Y-30832192D01*
X2095884Y-30217656D01*
X2286254Y-29632456D01*
X2544220Y-29081525D01*
X2864849Y-28569795D01*
X3243206Y-28102200D01*
X3674357Y-27683672D01*
X4153368Y-27319146D01*
X4675307Y-27013553D01*
X5235238Y-26771827D01*
X5828228Y-26598900D01*
X6449342Y-26499707D01*
X6933000Y-26476666D01*
X7560821Y-26516993D01*
D11*
X27500000Y-68500000D03*
X27500000Y-121500000D03*
X42500000Y-121500000D03*
X42500000Y-68500000D03*
D12*
X38870000Y-46200000D03*
X36330000Y-46200000D03*
X33790000Y-46200000D03*
D13*
X31250000Y-46200000D03*
D14*
X58500360Y-48499740D03*
X58901680Y-48499740D03*
X59300460Y-48499740D03*
X59701780Y-48499740D03*
X60100560Y-48499740D03*
X60501880Y-48499740D03*
X60898120Y-48499740D03*
X61299440Y-48499740D03*
X61698220Y-48499740D03*
X62099540Y-48499740D03*
X62498320Y-48499740D03*
X62899640Y-48499740D03*
D15*
X63699740Y-47699640D03*
X63699740Y-47298320D03*
X63699740Y-46899540D03*
X63699740Y-46498220D03*
X63699740Y-46099440D03*
X63699740Y-45698120D03*
X63699740Y-45301880D03*
X63699740Y-44900560D03*
X63699740Y-44501780D03*
X63699740Y-44100460D03*
X63699740Y-43701680D03*
X63699740Y-43300360D03*
D14*
X62899640Y-42500260D03*
X62498320Y-42500260D03*
X62099540Y-42500260D03*
X61698220Y-42500260D03*
X61299440Y-42500260D03*
X60898120Y-42500260D03*
X60501880Y-42500260D03*
X60100560Y-42500260D03*
X59701780Y-42500260D03*
X59300460Y-42500260D03*
X58901680Y-42500260D03*
X58500360Y-42500260D03*
D15*
X57700260Y-43300360D03*
X57700260Y-43701680D03*
X57700260Y-44100460D03*
X57700260Y-44501780D03*
X57700260Y-44900560D03*
X57700260Y-45301880D03*
X57700260Y-45698120D03*
X57700260Y-46099440D03*
X57700260Y-46498220D03*
X57700260Y-46899540D03*
X57700260Y-47298320D03*
X57700260Y-47699640D03*
D16*
X60700000Y-45500000D03*
D13*
X5880000Y-91920000D03*
D12*
X5880000Y-94460000D03*
X5880000Y-97000000D03*
X5880000Y-99540000D03*
X64300000Y-99540000D03*
X64300000Y-97000000D03*
X64300000Y-94460000D03*
D13*
X64300000Y-91920000D03*
D12*
X59220000Y-124940000D03*
X56680000Y-124940000D03*
X59220000Y-122400000D03*
X56680000Y-122400000D03*
X59220000Y-119860000D03*
X56680000Y-119860000D03*
X59220000Y-117320000D03*
X56680000Y-117320000D03*
X59220000Y-114780000D03*
X56680000Y-114780000D03*
X59220000Y-112240000D03*
D17*
X56680000Y-112240000D03*
D12*
X13500000Y-117320000D03*
X10960000Y-117320000D03*
X13500000Y-114780000D03*
X10960000Y-114780000D03*
X13500000Y-112240000D03*
D17*
X10960000Y-112240000D03*
D18*
X23660000Y-102080000D03*
X33820000Y-102080000D03*
X26200000Y-102080000D03*
X31280000Y-102080000D03*
X28740000Y-102080000D03*
X26200000Y-103350000D03*
X21120000Y-103350000D03*
X31280000Y-103350000D03*
X28740000Y-103350000D03*
X33820000Y-103350000D03*
X23660000Y-103350000D03*
X26200000Y-104620000D03*
X21120000Y-104620000D03*
X31280000Y-104620000D03*
X28740000Y-104620000D03*
X33820000Y-104620000D03*
X23660000Y-104620000D03*
X26200000Y-105890000D03*
X21120000Y-105890000D03*
X31280000Y-105890000D03*
X28740000Y-105890000D03*
X33820000Y-105890000D03*
X23660000Y-105890000D03*
X26200000Y-107160000D03*
X21120000Y-107160000D03*
X31280000Y-107160000D03*
X28740000Y-107160000D03*
X33820000Y-107160000D03*
X23660000Y-107160000D03*
X21120000Y-108430000D03*
X31280000Y-108430000D03*
X28740000Y-108430000D03*
X33820000Y-108430000D03*
X23660000Y-108430000D03*
X26200000Y-108430000D03*
X21120000Y-109700000D03*
X31280000Y-109700000D03*
X26200000Y-109700000D03*
X28740000Y-109700000D03*
X33820000Y-109700000D03*
X23660000Y-109700000D03*
X26200000Y-110970000D03*
X28740000Y-110970000D03*
X33820000Y-110970000D03*
X23660000Y-110970000D03*
X21120000Y-110970000D03*
X31280000Y-110970000D03*
X26200000Y-112240000D03*
X28740000Y-112240000D03*
X31280000Y-112240000D03*
X23660000Y-112240000D03*
X21120000Y-112240000D03*
X33820000Y-112240000D03*
X26200000Y-113510000D03*
X28740000Y-113510000D03*
X31280000Y-113510000D03*
X23660000Y-113510000D03*
X21120000Y-113510000D03*
X33820000Y-113510000D03*
X26200000Y-114780000D03*
X28740000Y-114780000D03*
X31280000Y-114780000D03*
X23660000Y-114780000D03*
X21120000Y-114780000D03*
X33820000Y-114780000D03*
X26200000Y-116050000D03*
X28740000Y-116050000D03*
X31280000Y-116050000D03*
X23660000Y-116050000D03*
X21120000Y-116050000D03*
X33820000Y-116050000D03*
X26200000Y-117320000D03*
X28740000Y-117320000D03*
X31280000Y-117320000D03*
X23660000Y-117320000D03*
X21120000Y-117320000D03*
X33820000Y-117320000D03*
X41440000Y-102080000D03*
X43980000Y-102080000D03*
X46520000Y-102080000D03*
X38900000Y-102080000D03*
X36360000Y-102080000D03*
X41440000Y-103350000D03*
X43980000Y-103350000D03*
X46520000Y-103350000D03*
X38900000Y-103350000D03*
X36360000Y-103350000D03*
X49060000Y-103350000D03*
X41440000Y-104620000D03*
X43980000Y-104620000D03*
X46520000Y-104620000D03*
X38900000Y-104620000D03*
X36360000Y-104620000D03*
X49060000Y-104620000D03*
X38900000Y-105890000D03*
X36360000Y-105890000D03*
X49060000Y-105890000D03*
X41440000Y-105890000D03*
X43980000Y-105890000D03*
X46520000Y-105890000D03*
X38900000Y-107160000D03*
X36360000Y-107160000D03*
X49060000Y-107160000D03*
X41440000Y-107160000D03*
X43980000Y-107160000D03*
X46520000Y-107160000D03*
X38900000Y-108430000D03*
X36360000Y-108430000D03*
X46520000Y-108430000D03*
X41440000Y-108430000D03*
X43980000Y-108430000D03*
X49060000Y-108430000D03*
X38900000Y-109700000D03*
X36360000Y-109700000D03*
X46520000Y-109700000D03*
X41440000Y-109700000D03*
X43980000Y-109700000D03*
X49060000Y-109700000D03*
X36360000Y-110970000D03*
X46520000Y-110970000D03*
X41440000Y-110970000D03*
X43980000Y-110970000D03*
X49060000Y-110970000D03*
X38900000Y-110970000D03*
X36360000Y-112240000D03*
X46520000Y-112240000D03*
X41440000Y-112240000D03*
X43980000Y-112240000D03*
X49060000Y-112240000D03*
X38900000Y-112240000D03*
X36360000Y-113510000D03*
X46520000Y-113510000D03*
X41440000Y-113510000D03*
X43980000Y-113510000D03*
X49060000Y-113510000D03*
X38900000Y-113510000D03*
X36360000Y-114780000D03*
X46520000Y-114780000D03*
X41440000Y-114780000D03*
X43980000Y-114780000D03*
X49060000Y-114780000D03*
X38900000Y-114780000D03*
X36360000Y-116050000D03*
X46520000Y-116050000D03*
X41440000Y-116050000D03*
X43980000Y-116050000D03*
X49060000Y-116050000D03*
X38900000Y-116050000D03*
X36360000Y-117320000D03*
X46520000Y-117320000D03*
X41440000Y-117320000D03*
X43980000Y-117320000D03*
X49060000Y-117320000D03*
X38900000Y-117320000D03*
X23660000Y-118590000D03*
X46520000Y-118590000D03*
X43980000Y-118590000D03*
X41440000Y-118590000D03*
X26200000Y-118590000D03*
X28740000Y-118590000D03*
X31280000Y-118590000D03*
X38900000Y-118590000D03*
X36360000Y-118590000D03*
D19*
X42297940Y-42372740D03*
X41647700Y-42372740D03*
X41000000Y-42372740D03*
X40352300Y-42372740D03*
X39702060Y-42372740D03*
D20*
X42198880Y-39500000D03*
X39801120Y-39500000D03*
D21*
X44624580Y-39500000D03*
X37375420Y-39500000D03*
D22*
X43423160Y-42227960D03*
X38576840Y-42227960D03*
D23*
X39448119Y-53776881D03*
X40101881Y-53123119D03*
X40223119Y-54526881D03*
X40876881Y-53873119D03*
X41048119Y-55301881D03*
X41701881Y-54648119D03*
X57537720Y-51400000D03*
X58462280Y-51400000D03*
X58462280Y-50000000D03*
X57537720Y-50000000D03*
X62253119Y-50576881D03*
X62906881Y-49923119D03*
X57062280Y-42200000D03*
X56137720Y-42200000D03*
X59062280Y-41000000D03*
X58137720Y-41000000D03*
X54137720Y-41000000D03*
X55062280Y-41000000D03*
X57137720Y-39800000D03*
X58062280Y-39800000D03*
X64262280Y-39400000D03*
X63337720Y-39400000D03*
X52062280Y-39600000D03*
X51137720Y-39600000D03*
X51037720Y-47400000D03*
X51962280Y-47400000D03*
X55262280Y-45400000D03*
X54337720Y-45400000D03*
X64262280Y-40400000D03*
X63337720Y-40400000D03*
D24*
X25144574Y-39401975D03*
D25*
X26700000Y-40300000D03*
D26*
X26700000Y-40300000D02*
X26700000Y-40300000D01*
D25*
X24246548Y-40957401D03*
D26*
X24246548Y-40957401D02*
X24246548Y-40957401D01*
D25*
X26042600Y-37846549D03*
D26*
X26042600Y-37846549D02*
X26042600Y-37846549D01*
D25*
X23589148Y-38503949D03*
D24*
X12230000Y-105890000D03*
D27*
X13500000Y-107160000D03*
X10960000Y-107160000D03*
X13500000Y-104620000D03*
D25*
X10960000Y-104620000D03*
X56680000Y-104620000D03*
D27*
X59220000Y-104620000D03*
X56680000Y-107160000D03*
X59220000Y-107160000D03*
D24*
X57950000Y-105890000D03*
D25*
X10960000Y-122400000D03*
D27*
X13500000Y-122400000D03*
X10960000Y-124940000D03*
X13500000Y-124940000D03*
D24*
X12230000Y-123670000D03*
D28*
X36872500Y-89841000D03*
X36872500Y-94159000D03*
X45127500Y-94159000D03*
X45127500Y-89841000D03*
X12872500Y-89841000D03*
X12872500Y-94159000D03*
X21127500Y-94159000D03*
X21127500Y-89841000D03*
X33127500Y-89841000D03*
X33127500Y-94159000D03*
X24872500Y-94159000D03*
X24872500Y-89841000D03*
X57127500Y-89841000D03*
X57127500Y-94159000D03*
X48872500Y-94159000D03*
X48872500Y-89841000D03*
D23*
X60137720Y-41000000D03*
X61062280Y-41000000D03*
X62062280Y-39800000D03*
X61137720Y-39800000D03*
D29*
X17200000Y-55438000D03*
X17200000Y-56962000D03*
X18762000Y-59600000D03*
X17238000Y-59600000D03*
D23*
X27826881Y-60576881D03*
X27173119Y-59923119D03*
X39126881Y-52173119D03*
X38473119Y-52826881D03*
X37673119Y-52026881D03*
X38326881Y-51373119D03*
D30*
X29979542Y-57868629D03*
D31*
G36*
X30810392Y-58239860D02*
X30350773Y-58699479D01*
X29148692Y-57497398D01*
X29608311Y-57037779D01*
X30810392Y-58239860D01*
X30810392Y-58239860D01*
G37*
D30*
X30333095Y-57515076D03*
D31*
G36*
X31163945Y-57886307D02*
X30704326Y-58345926D01*
X29502245Y-57143845D01*
X29961864Y-56684226D01*
X31163945Y-57886307D01*
X31163945Y-57886307D01*
G37*
D30*
X30686649Y-57161522D03*
D31*
G36*
X31517499Y-57532753D02*
X31057880Y-57992372D01*
X29855799Y-56790291D01*
X30315418Y-56330672D01*
X31517499Y-57532753D01*
X31517499Y-57532753D01*
G37*
D30*
X31040202Y-56807969D03*
D31*
G36*
X31871052Y-57179200D02*
X31411433Y-57638819D01*
X30209352Y-56436738D01*
X30668971Y-55977119D01*
X31871052Y-57179200D01*
X31871052Y-57179200D01*
G37*
D30*
X31393755Y-56454416D03*
D31*
G36*
X32224605Y-56825647D02*
X31764986Y-57285266D01*
X30562905Y-56083185D01*
X31022524Y-55623566D01*
X32224605Y-56825647D01*
X32224605Y-56825647D01*
G37*
D30*
X31747309Y-56100862D03*
D31*
G36*
X32578159Y-56472093D02*
X32118540Y-56931712D01*
X30916459Y-55729631D01*
X31376078Y-55270012D01*
X32578159Y-56472093D01*
X32578159Y-56472093D01*
G37*
D30*
X32100862Y-55747309D03*
D31*
G36*
X32931712Y-56118540D02*
X32472093Y-56578159D01*
X31270012Y-55376078D01*
X31729631Y-54916459D01*
X32931712Y-56118540D01*
X32931712Y-56118540D01*
G37*
D30*
X32454416Y-55393755D03*
D31*
G36*
X33285266Y-55764986D02*
X32825647Y-56224605D01*
X31623566Y-55022524D01*
X32083185Y-54562905D01*
X33285266Y-55764986D01*
X33285266Y-55764986D01*
G37*
D30*
X32807969Y-55040202D03*
D31*
G36*
X33638819Y-55411433D02*
X33179200Y-55871052D01*
X31977119Y-54668971D01*
X32436738Y-54209352D01*
X33638819Y-55411433D01*
X33638819Y-55411433D01*
G37*
D30*
X33161522Y-54686649D03*
D31*
G36*
X33992372Y-55057880D02*
X33532753Y-55517499D01*
X32330672Y-54315418D01*
X32790291Y-53855799D01*
X33992372Y-55057880D01*
X33992372Y-55057880D01*
G37*
D30*
X33515076Y-54333095D03*
D31*
G36*
X34345926Y-54704326D02*
X33886307Y-55163945D01*
X32684226Y-53961864D01*
X33143845Y-53502245D01*
X34345926Y-54704326D01*
X34345926Y-54704326D01*
G37*
D30*
X33868629Y-53979542D03*
D31*
G36*
X34699479Y-54350773D02*
X34239860Y-54810392D01*
X33037779Y-53608311D01*
X33497398Y-53148692D01*
X34699479Y-54350773D01*
X34699479Y-54350773D01*
G37*
D30*
X36131371Y-53979542D03*
D31*
G36*
X35760140Y-54810392D02*
X35300521Y-54350773D01*
X36502602Y-53148692D01*
X36962221Y-53608311D01*
X35760140Y-54810392D01*
X35760140Y-54810392D01*
G37*
D30*
X36484924Y-54333095D03*
D31*
G36*
X36113693Y-55163945D02*
X35654074Y-54704326D01*
X36856155Y-53502245D01*
X37315774Y-53961864D01*
X36113693Y-55163945D01*
X36113693Y-55163945D01*
G37*
D30*
X36838478Y-54686649D03*
D31*
G36*
X36467247Y-55517499D02*
X36007628Y-55057880D01*
X37209709Y-53855799D01*
X37669328Y-54315418D01*
X36467247Y-55517499D01*
X36467247Y-55517499D01*
G37*
D30*
X37192031Y-55040202D03*
D31*
G36*
X36820800Y-55871052D02*
X36361181Y-55411433D01*
X37563262Y-54209352D01*
X38022881Y-54668971D01*
X36820800Y-55871052D01*
X36820800Y-55871052D01*
G37*
D30*
X37545584Y-55393755D03*
D31*
G36*
X37174353Y-56224605D02*
X36714734Y-55764986D01*
X37916815Y-54562905D01*
X38376434Y-55022524D01*
X37174353Y-56224605D01*
X37174353Y-56224605D01*
G37*
D30*
X37899138Y-55747309D03*
D31*
G36*
X37527907Y-56578159D02*
X37068288Y-56118540D01*
X38270369Y-54916459D01*
X38729988Y-55376078D01*
X37527907Y-56578159D01*
X37527907Y-56578159D01*
G37*
D30*
X38252691Y-56100862D03*
D31*
G36*
X37881460Y-56931712D02*
X37421841Y-56472093D01*
X38623922Y-55270012D01*
X39083541Y-55729631D01*
X37881460Y-56931712D01*
X37881460Y-56931712D01*
G37*
D30*
X38606245Y-56454416D03*
D31*
G36*
X38235014Y-57285266D02*
X37775395Y-56825647D01*
X38977476Y-55623566D01*
X39437095Y-56083185D01*
X38235014Y-57285266D01*
X38235014Y-57285266D01*
G37*
D30*
X38959798Y-56807969D03*
D31*
G36*
X38588567Y-57638819D02*
X38128948Y-57179200D01*
X39331029Y-55977119D01*
X39790648Y-56436738D01*
X38588567Y-57638819D01*
X38588567Y-57638819D01*
G37*
D30*
X39313351Y-57161522D03*
D31*
G36*
X38942120Y-57992372D02*
X38482501Y-57532753D01*
X39684582Y-56330672D01*
X40144201Y-56790291D01*
X38942120Y-57992372D01*
X38942120Y-57992372D01*
G37*
D30*
X39666905Y-57515076D03*
D31*
G36*
X39295674Y-58345926D02*
X38836055Y-57886307D01*
X40038136Y-56684226D01*
X40497755Y-57143845D01*
X39295674Y-58345926D01*
X39295674Y-58345926D01*
G37*
D30*
X40020458Y-57868629D03*
D31*
G36*
X39649227Y-58699479D02*
X39189608Y-58239860D01*
X40391689Y-57037779D01*
X40851308Y-57497398D01*
X39649227Y-58699479D01*
X39649227Y-58699479D01*
G37*
D30*
X40020458Y-60131371D03*
D31*
G36*
X40851308Y-60502602D02*
X40391689Y-60962221D01*
X39189608Y-59760140D01*
X39649227Y-59300521D01*
X40851308Y-60502602D01*
X40851308Y-60502602D01*
G37*
D30*
X39666905Y-60484924D03*
D31*
G36*
X40497755Y-60856155D02*
X40038136Y-61315774D01*
X38836055Y-60113693D01*
X39295674Y-59654074D01*
X40497755Y-60856155D01*
X40497755Y-60856155D01*
G37*
D30*
X39313351Y-60838478D03*
D31*
G36*
X40144201Y-61209709D02*
X39684582Y-61669328D01*
X38482501Y-60467247D01*
X38942120Y-60007628D01*
X40144201Y-61209709D01*
X40144201Y-61209709D01*
G37*
D30*
X38959798Y-61192031D03*
D31*
G36*
X39790648Y-61563262D02*
X39331029Y-62022881D01*
X38128948Y-60820800D01*
X38588567Y-60361181D01*
X39790648Y-61563262D01*
X39790648Y-61563262D01*
G37*
D30*
X38606245Y-61545584D03*
D31*
G36*
X39437095Y-61916815D02*
X38977476Y-62376434D01*
X37775395Y-61174353D01*
X38235014Y-60714734D01*
X39437095Y-61916815D01*
X39437095Y-61916815D01*
G37*
D30*
X38252691Y-61899138D03*
D31*
G36*
X39083541Y-62270369D02*
X38623922Y-62729988D01*
X37421841Y-61527907D01*
X37881460Y-61068288D01*
X39083541Y-62270369D01*
X39083541Y-62270369D01*
G37*
D30*
X37899138Y-62252691D03*
D31*
G36*
X38729988Y-62623922D02*
X38270369Y-63083541D01*
X37068288Y-61881460D01*
X37527907Y-61421841D01*
X38729988Y-62623922D01*
X38729988Y-62623922D01*
G37*
D30*
X37545584Y-62606245D03*
D31*
G36*
X38376434Y-62977476D02*
X37916815Y-63437095D01*
X36714734Y-62235014D01*
X37174353Y-61775395D01*
X38376434Y-62977476D01*
X38376434Y-62977476D01*
G37*
D30*
X37192031Y-62959798D03*
D31*
G36*
X38022881Y-63331029D02*
X37563262Y-63790648D01*
X36361181Y-62588567D01*
X36820800Y-62128948D01*
X38022881Y-63331029D01*
X38022881Y-63331029D01*
G37*
D30*
X36838478Y-63313351D03*
D31*
G36*
X37669328Y-63684582D02*
X37209709Y-64144201D01*
X36007628Y-62942120D01*
X36467247Y-62482501D01*
X37669328Y-63684582D01*
X37669328Y-63684582D01*
G37*
D30*
X36484924Y-63666905D03*
D31*
G36*
X37315774Y-64038136D02*
X36856155Y-64497755D01*
X35654074Y-63295674D01*
X36113693Y-62836055D01*
X37315774Y-64038136D01*
X37315774Y-64038136D01*
G37*
D30*
X36131371Y-64020458D03*
D31*
G36*
X36962221Y-64391689D02*
X36502602Y-64851308D01*
X35300521Y-63649227D01*
X35760140Y-63189608D01*
X36962221Y-64391689D01*
X36962221Y-64391689D01*
G37*
D30*
X33868629Y-64020458D03*
D31*
G36*
X33497398Y-64851308D02*
X33037779Y-64391689D01*
X34239860Y-63189608D01*
X34699479Y-63649227D01*
X33497398Y-64851308D01*
X33497398Y-64851308D01*
G37*
D30*
X33515076Y-63666905D03*
D31*
G36*
X33143845Y-64497755D02*
X32684226Y-64038136D01*
X33886307Y-62836055D01*
X34345926Y-63295674D01*
X33143845Y-64497755D01*
X33143845Y-64497755D01*
G37*
D30*
X33161522Y-63313351D03*
D31*
G36*
X32790291Y-64144201D02*
X32330672Y-63684582D01*
X33532753Y-62482501D01*
X33992372Y-62942120D01*
X32790291Y-64144201D01*
X32790291Y-64144201D01*
G37*
D30*
X32807969Y-62959798D03*
D31*
G36*
X32436738Y-63790648D02*
X31977119Y-63331029D01*
X33179200Y-62128948D01*
X33638819Y-62588567D01*
X32436738Y-63790648D01*
X32436738Y-63790648D01*
G37*
D30*
X32454416Y-62606245D03*
D31*
G36*
X32083185Y-63437095D02*
X31623566Y-62977476D01*
X32825647Y-61775395D01*
X33285266Y-62235014D01*
X32083185Y-63437095D01*
X32083185Y-63437095D01*
G37*
D30*
X32100862Y-62252691D03*
D31*
G36*
X31729631Y-63083541D02*
X31270012Y-62623922D01*
X32472093Y-61421841D01*
X32931712Y-61881460D01*
X31729631Y-63083541D01*
X31729631Y-63083541D01*
G37*
D30*
X31747309Y-61899138D03*
D31*
G36*
X31376078Y-62729988D02*
X30916459Y-62270369D01*
X32118540Y-61068288D01*
X32578159Y-61527907D01*
X31376078Y-62729988D01*
X31376078Y-62729988D01*
G37*
D30*
X31393755Y-61545584D03*
D31*
G36*
X31022524Y-62376434D02*
X30562905Y-61916815D01*
X31764986Y-60714734D01*
X32224605Y-61174353D01*
X31022524Y-62376434D01*
X31022524Y-62376434D01*
G37*
D30*
X31040202Y-61192031D03*
D31*
G36*
X30668971Y-62022881D02*
X30209352Y-61563262D01*
X31411433Y-60361181D01*
X31871052Y-60820800D01*
X30668971Y-62022881D01*
X30668971Y-62022881D01*
G37*
D30*
X30686649Y-60838478D03*
D31*
G36*
X30315418Y-61669328D02*
X29855799Y-61209709D01*
X31057880Y-60007628D01*
X31517499Y-60467247D01*
X30315418Y-61669328D01*
X30315418Y-61669328D01*
G37*
D30*
X30333095Y-60484924D03*
D31*
G36*
X29961864Y-61315774D02*
X29502245Y-60856155D01*
X30704326Y-59654074D01*
X31163945Y-60113693D01*
X29961864Y-61315774D01*
X29961864Y-61315774D01*
G37*
D30*
X29979542Y-60131371D03*
D31*
G36*
X29608311Y-60962221D02*
X29148692Y-60502602D01*
X30350773Y-59300521D01*
X30810392Y-59760140D01*
X29608311Y-60962221D01*
X29608311Y-60962221D01*
G37*
D32*
X51500000Y-41341000D03*
X51500000Y-45659000D03*
D23*
X56137720Y-41000000D03*
X57062280Y-41000000D03*
D33*
X29862000Y-86700000D03*
X28338000Y-86700000D03*
X40238000Y-86700000D03*
X41762000Y-86700000D03*
X17862000Y-86700000D03*
X16338000Y-86700000D03*
X52338000Y-86700000D03*
X53862000Y-86700000D03*
D23*
X29562280Y-83600000D03*
X28637720Y-83600000D03*
X40537720Y-83600000D03*
X41462280Y-83600000D03*
X17562280Y-83600000D03*
X16637720Y-83600000D03*
X52637720Y-83600000D03*
X53562280Y-83600000D03*
D34*
X20884000Y-57811000D03*
X20884000Y-59589000D03*
X22916000Y-58700000D03*
X20884000Y-54211000D03*
X20884000Y-55989000D03*
X22916000Y-55100000D03*
D18*
X33820000Y-118590000D03*
M02*
